<?xml version="1.0" standalone="no"?>
<!DOCTYPE svg PUBLIC "-//W3C//DTD SVG 20010904//EN"
 "http://www.w3.org/TR/2001/REC-SVG-20010904/DTD/svg10.dtd">
<svg version="1.0" xmlns="http://www.w3.org/2000/svg"
 width="1080.000000pt" height="1080.000000pt" viewBox="0 0 1080.000000 1080.000000"
 preserveAspectRatio="xMidYMid meet">

<g transform="translate(0.000000,1080.000000) scale(0.100000,-0.100000)"
fill="#000000" stroke="none">
<path d="M0 5400 l0 -5400 4710 0 c3128 0 4711 4 4715 10 4 6 10 8 14 6 4 -3
8 1 8 9 0 8 -5 13 -11 12 -6 -1 -10 4 -9 10 2 7 0 12 -5 10 -4 -1 -7 3 -7 8 0
5 3 9 7 8 5 -2 7 3 5 10 -1 6 3 11 9 10 6 -1 11 4 11 12 0 8 -5 13 -11 12 -6
-1 -10 4 -9 10 2 7 0 12 -5 10 -4 -1 -7 3 -7 8 0 6 3 9 7 8 5 -2 7 3 5 10 -1
6 3 11 9 10 6 -1 11 4 11 12 0 8 -5 13 -11 12 -6 -1 -10 4 -9 10 2 7 0 12 -5
10 -4 -1 -7 2 -7 8 0 5 3 9 7 8 5 -2 7 3 5 10 -1 6 3 11 9 10 6 -1 11 4 11 12
0 8 -5 13 -11 12 -6 -1 -10 4 -9 10 2 7 0 12 -5 10 -4 -1 -7 3 -7 8 0 6 3 9 7
8 5 -2 7 3 5 10 -1 6 3 11 9 10 6 -1 11 4 11 12 0 8 -5 13 -11 12 -6 -1 -10 4
-9 10 2 7 0 12 -5 10 -4 -1 -7 2 -7 8 0 5 3 9 7 8 5 -2 7 3 5 10 -1 6 3 11 9
10 6 -1 11 4 11 12 0 8 -5 13 -11 12 -6 -1 -10 4 -9 10 2 7 0 12 -5 10 -4 -1
-7 3 -7 8 0 6 3 9 7 8 5 -2 7 3 5 10 -1 6 3 11 9 10 6 -1 11 4 11 12 0 8 -5
13 -11 12 -6 -1 -10 4 -9 10 2 7 0 12 -5 10 -4 -1 -7 3 -7 8 0 6 3 9 7 8 5 -2
7 3 5 10 -1 6 3 11 9 10 6 -1 11 4 11 12 0 8 -5 13 -11 12 -6 -1 -10 4 -9 10
2 7 -2 12 -9 10 -7 -1 -12 6 -13 16 0 9 5 16 10 15 6 -2 9 -6 8 -9 -1 -3 4 -6
11 -6 7 0 13 6 13 13 0 7 -5 12 -11 11 -6 -1 -10 4 -9 10 2 7 0 12 -5 10 -4
-1 -7 3 -7 8 0 6 3 9 7 8 5 -2 7 3 5 10 -1 6 3 11 9 10 6 -1 11 4 11 12 0 8
-5 13 -11 12 -6 -1 -10 4 -9 10 2 7 0 12 -5 10 -4 -1 -7 3 -7 8 0 6 3 9 7 8 5
-2 7 3 5 10 -1 6 3 11 9 10 6 -1 11 4 11 12 0 8 -5 13 -11 12 -6 -1 -10 4 -9
10 2 7 0 12 -5 10 -4 -1 -7 3 -7 8 0 6 3 9 7 8 5 -2 7 3 5 10 -1 6 3 11 9 10
6 -1 11 4 11 12 0 8 -5 13 -11 12 -6 -1 -10 4 -9 10 2 7 0 12 -5 10 -4 -1 -7
3 -7 8 0 6 3 9 7 8 5 -2 7 3 5 10 -1 6 3 11 9 10 6 -1 11 4 11 12 0 8 -5 13
-11 12 -6 -1 -10 4 -9 10 2 7 0 12 -5 10 -4 -1 -7 3 -7 8 0 6 3 9 7 8 5 -2 7
3 5 10 -1 6 3 11 9 10 6 -1 11 4 11 12 0 8 -5 13 -11 12 -6 -1 -10 4 -9 10 2
7 0 12 -5 10 -4 -1 -7 3 -7 8 0 6 3 9 7 8 5 -2 7 3 5 10 -1 6 3 11 9 10 6 -1
11 4 11 12 0 8 -5 13 -11 12 -6 -1 -10 4 -9 10 2 7 0 12 -5 10 -4 -1 -7 3 -7
8 0 6 3 9 7 8 5 -2 7 3 5 10 -1 6 3 11 9 10 6 -1 11 4 11 12 0 8 -5 13 -11 12
-6 -1 -10 4 -9 10 2 7 0 12 -5 10 -4 -1 -7 3 -7 8 0 6 3 9 7 8 5 -2 7 3 5 10
-1 6 3 11 9 10 6 -1 11 4 11 12 0 8 -5 13 -11 12 -6 -1 -10 4 -9 10 2 7 0 12
-5 10 -4 -1 -7 3 -7 8 0 6 3 9 7 8 5 -2 7 3 5 10 -1 6 3 11 9 10 6 -1 11 4 11
12 0 8 -5 13 -11 12 -6 -1 -10 4 -9 10 2 7 0 12 -5 10 -4 -1 -7 2 -7 8 0 5 3
9 7 8 5 -2 7 3 5 10 -1 6 3 11 9 10 6 -1 11 4 11 12 0 8 -5 13 -11 12 -6 -1
-10 4 -9 10 2 7 0 12 -5 10 -4 -1 -7 2 -7 8 0 5 3 9 7 8 5 -2 7 3 5 10 -1 6 3
11 9 10 6 -1 11 4 11 12 0 8 -5 13 -11 12 -6 -1 -10 4 -9 10 2 7 0 12 -5 10
-4 -1 -7 3 -7 8 0 6 3 9 7 8 5 -2 7 3 5 10 -1 6 3 11 9 10 6 -1 11 4 11 12 0
8 -5 13 -11 12 -6 -1 -10 4 -9 10 2 7 0 12 -5 10 -4 -1 -7 3 -7 8 0 6 3 9 7 8
5 -2 7 3 5 10 -1 6 3 11 9 10 6 -1 11 4 11 12 0 8 -5 13 -11 12 -6 -1 -10 4
-9 10 2 7 0 12 -5 10 -4 -1 -7 3 -7 8 0 6 3 9 7 8 5 -2 7 3 5 10 -1 6 3 11 9
10 6 -1 11 4 11 12 0 8 -5 13 -11 12 -6 -1 -10 4 -9 10 2 7 0 12 -5 10 -4 -1
-7 3 -7 8 0 6 3 9 7 8 5 -2 7 3 5 10 -1 6 3 11 9 10 6 -1 11 4 11 12 0 8 -5
13 -11 12 -6 -1 -10 4 -9 10 2 7 0 12 -5 10 -4 -1 -7 3 -7 8 0 6 3 9 8 7 4 -1
6 4 5 10 -2 7 2 12 8 11 6 -1 11 4 11 12 0 8 -5 13 -11 12 -6 -1 -10 4 -8 11
1 6 -1 11 -5 10 -5 -2 -8 2 -8 7 0 6 3 9 8 7 4 -1 6 4 5 10 -2 7 2 12 8 11 6
-1 11 4 11 12 0 8 -5 13 -11 12 -6 -1 -10 4 -8 11 1 6 -1 11 -5 10 -5 -2 -8 2
-8 7 0 6 3 9 8 7 4 -1 6 4 5 10 -2 7 2 12 8 11 6 -1 11 4 11 12 0 8 -5 13 -11
12 -6 -1 -10 4 -8 11 1 6 -1 11 -5 10 -5 -2 -8 2 -8 7 0 6 3 9 8 7 4 -1 6 4 5
10 -2 7 2 12 8 11 6 -1 11 4 11 12 0 8 -5 13 -11 12 -6 -1 -10 4 -8 11 1 6 -1
11 -5 10 -5 -2 -8 2 -8 7 0 6 3 9 8 7 4 -1 6 4 5 10 -2 7 2 12 8 11 6 -1 11 4
11 12 0 8 -5 13 -11 12 -6 -1 -10 4 -8 11 1 6 -1 11 -5 10 -5 -2 -8 2 -8 7 0
6 3 9 8 7 4 -1 6 4 5 10 -2 7 2 12 8 11 6 -1 11 4 11 12 0 8 -5 13 -11 12 -6
-1 -10 4 -8 11 1 6 -1 11 -5 10 -5 -2 -8 2 -8 7 0 6 3 9 8 7 4 -1 6 4 5 10 -2
7 2 12 8 11 6 -1 11 4 11 12 0 8 -5 13 -11 12 -6 -1 -10 4 -8 11 1 6 -1 11 -5
10 -5 -2 -8 2 -8 7 0 6 3 9 8 7 4 -1 6 4 5 10 -2 7 2 12 8 11 6 -1 11 4 11 12
0 8 -5 13 -11 12 -6 -1 -10 4 -8 11 1 6 -1 11 -5 10 -5 -2 -8 2 -8 7 0 6 3 9
8 7 4 -1 6 4 5 10 -2 7 2 12 8 11 6 -1 11 4 11 12 0 8 -5 13 -11 12 -6 -1 -10
4 -8 11 1 6 -1 11 -5 10 -5 -2 -8 2 -8 7 0 6 3 9 8 7 4 -1 6 4 5 10 -2 7 2 12
8 11 6 -1 11 4 11 12 0 8 -5 13 -11 12 -6 -1 -10 4 -8 11 1 6 -1 11 -5 10 -5
-2 -8 2 -8 7 0 6 3 9 8 7 4 -1 6 4 5 10 -2 7 2 12 8 11 6 -1 11 4 11 12 0 8
-5 13 -11 12 -6 -1 -10 4 -8 11 1 6 -1 11 -5 10 -5 -2 -8 2 -8 7 0 6 3 9 8 7
4 -1 6 4 5 10 -2 7 2 12 8 11 6 -1 11 4 11 12 0 8 -5 13 -11 12 -6 -1 -10 4
-8 11 1 6 -1 11 -5 10 -5 -2 -8 2 -8 7 0 6 3 9 8 7 4 -1 6 4 5 10 -2 7 2 12 8
11 6 -1 11 4 11 12 0 8 -5 13 -11 12 -6 -1 -10 4 -8 11 1 6 -1 11 -5 10 -5 -2
-8 2 -8 7 0 6 3 9 8 7 4 -1 6 4 5 10 -2 7 2 12 8 11 6 -1 11 4 11 12 0 8 -5
13 -11 12 -6 -1 -10 4 -8 11 1 6 -1 11 -5 10 -5 -2 -8 2 -8 7 0 6 3 9 8 7 4
-1 6 4 5 10 -2 7 2 12 8 11 6 -1 11 4 11 12 0 8 -5 13 -11 12 -6 -1 -10 4 -8
11 1 6 -1 11 -5 10 -5 -2 -8 2 -8 7 0 6 3 9 8 7 4 -1 6 4 5 10 -2 7 2 12 8 11
6 -1 11 4 11 12 0 8 -5 13 -11 12 -6 -1 -10 4 -8 11 1 6 -3 11 -10 10 -7 -2
-12 5 -13 15 0 9 5 16 10 15 6 -2 9 -6 8 -9 -1 -3 4 -6 11 -6 7 0 13 6 13 13
0 7 -5 12 -11 11 -6 -1 -10 4 -8 11 1 6 -1 11 -5 10 -5 -2 -8 2 -8 7 0 6 3 9
8 7 4 -1 6 4 5 10 -2 7 2 12 8 11 6 -1 11 4 11 12 0 8 -5 13 -11 12 -6 -1 -10
4 -8 11 1 6 -1 11 -5 10 -5 -2 -8 2 -8 7 0 6 3 9 8 7 4 -1 6 4 5 10 -2 7 2 12
8 11 6 -1 11 4 11 12 0 8 -5 13 -11 12 -6 -1 -10 4 -8 11 1 6 -1 11 -5 10 -5
-2 -8 2 -8 7 0 6 3 9 8 7 4 -1 6 4 5 10 -2 7 2 12 8 11 6 -1 11 4 11 12 0 8
-5 13 -11 12 -6 -1 -10 4 -8 11 1 6 -1 11 -5 10 -5 -2 -8 2 -8 7 0 6 3 9 8 7
4 -1 6 4 5 10 -2 7 2 12 8 11 6 -1 11 4 11 12 0 8 -5 13 -11 12 -6 -1 -10 4
-8 11 1 6 -1 11 -5 10 -5 -2 -8 2 -8 7 0 6 3 9 8 7 4 -1 6 4 5 10 -2 7 2 12 8
11 6 -1 11 4 11 12 0 8 -5 13 -11 12 -6 -1 -10 4 -8 11 1 6 -1 11 -5 10 -5 -2
-8 2 -8 7 0 6 3 9 8 7 4 -1 6 4 5 10 -2 7 2 12 8 11 6 -1 11 4 11 12 0 8 -5
13 -11 12 -6 -1 -10 4 -8 11 1 6 -1 11 -5 10 -5 -2 -8 2 -8 7 0 6 3 9 8 7 4
-1 6 4 5 10 -2 7 2 12 8 11 6 -1 11 4 11 12 0 8 -5 13 -11 12 -6 -1 -10 4 -8
11 1 6 -1 11 -5 10 -5 -2 -8 2 -8 7 0 6 3 9 8 7 4 -1 6 4 5 10 -2 7 2 12 8 11
6 -1 11 4 11 12 0 8 -5 13 -11 12 -6 -1 -10 4 -8 11 1 6 -1 11 -5 10 -5 -2 -8
2 -8 7 0 6 3 9 8 7 4 -1 6 4 5 10 -2 7 2 12 8 11 6 -1 11 4 11 12 0 8 -5 13
-11 12 -6 -1 -10 4 -8 11 1 6 -1 11 -5 10 -5 -2 -8 2 -8 7 0 6 3 9 8 7 4 -1 6
4 5 10 -2 7 2 12 8 11 6 -1 11 4 11 12 0 8 -5 13 -11 12 -6 -1 -10 4 -8 11 1
6 -1 11 -5 10 -5 -2 -8 2 -8 7 0 6 3 9 8 7 4 -1 6 4 5 10 -2 7 2 12 8 11 6 -1
11 4 11 12 0 8 -5 13 -11 12 -6 -1 -10 4 -8 11 1 6 -1 11 -5 10 -5 -2 -8 2 -8
7 0 6 3 9 8 7 4 -1 6 4 5 10 -2 7 2 12 8 11 6 -1 11 4 11 12 0 8 -5 13 -11 12
-6 -1 -10 4 -8 11 1 6 -1 11 -5 10 -5 -2 -8 2 -8 7 0 6 3 9 8 7 4 -1 6 4 5 10
-2 7 2 12 8 11 6 -1 11 4 11 12 0 8 -5 13 -11 12 -6 -1 -10 4 -8 11 1 6 -1 11
-5 10 -5 -2 -8 2 -8 7 0 6 3 9 8 7 4 -1 6 4 5 10 -2 7 2 12 8 11 6 -1 11 4 11
12 0 8 -5 13 -11 12 -6 -1 -10 4 -8 11 1 6 -2 11 -7 10 -5 -2 -9 2 -9 7 0 6 4
9 9 7 5 -1 8 4 7 10 -2 7 2 12 8 11 6 -1 11 4 11 12 0 8 -5 13 -11 12 -6 -1
-10 4 -8 11 1 6 -2 11 -7 10 -5 -2 -9 2 -9 7 0 6 4 9 9 7 5 -1 8 4 7 10 -2 7
2 12 8 11 6 -1 11 4 11 12 0 8 -5 13 -11 12 -6 -1 -10 4 -8 11 1 6 -2 11 -7
10 -5 -2 -9 2 -9 7 0 6 4 9 9 7 5 -1 8 4 7 10 -2 7 2 12 8 11 6 -1 11 4 11 12
0 8 -5 13 -11 12 -6 -1 -10 4 -8 11 1 6 -2 11 -7 10 -5 -2 -9 2 -9 7 0 6 4 9
9 7 5 -1 8 4 7 10 -2 7 2 12 8 11 6 -1 11 4 11 12 0 8 -5 13 -11 12 -6 -1 -10
4 -8 11 1 6 -2 11 -7 10 -5 -2 -9 2 -9 7 0 6 4 9 9 7 5 -1 8 4 7 10 -2 7 2 12
8 11 6 -1 11 4 11 12 0 8 -5 13 -11 12 -6 -1 -10 4 -8 11 1 6 -2 11 -7 10 -5
-2 -9 2 -9 7 0 6 4 9 9 7 5 -1 8 4 7 10 -2 7 2 12 8 11 6 -1 11 4 11 12 0 8
-5 13 -11 12 -6 -1 -10 4 -8 11 1 6 -2 11 -7 10 -5 -2 -9 2 -9 7 0 6 4 9 9 7
5 -1 8 4 7 10 -2 7 2 12 8 11 6 -1 11 4 11 12 0 8 -5 13 -11 12 -6 -1 -10 4
-8 11 1 6 -2 11 -7 10 -5 -2 -9 2 -9 7 0 6 4 9 9 7 5 -1 8 4 7 10 -2 7 2 12 8
11 6 -1 11 4 11 12 0 8 -5 13 -11 12 -6 -1 -10 4 -8 11 1 6 -2 11 -7 10 -5 -2
-9 2 -9 7 0 6 4 9 9 7 5 -1 8 4 7 10 -2 7 2 12 8 11 6 -1 11 4 11 12 0 8 -5
13 -11 12 -6 -1 -10 4 -8 11 1 6 -2 11 -7 10 -5 -2 -9 2 -9 7 0 6 4 9 9 7 5
-1 8 4 7 10 -2 7 2 12 8 11 6 -1 11 4 11 12 0 8 -5 13 -11 12 -6 -1 -10 4 -8
11 1 6 -2 11 -7 10 -5 -2 -9 2 -9 7 0 6 4 9 9 7 5 -1 8 4 7 10 -2 7 2 12 8 11
6 -1 11 4 11 12 0 8 -5 13 -11 12 -6 -1 -10 4 -8 11 1 6 -2 11 -7 10 -5 -2 -9
2 -9 7 0 6 4 9 9 7 5 -1 8 4 7 10 -2 7 2 12 8 11 6 -1 11 4 11 12 0 8 -5 13
-11 12 -6 -1 -10 4 -8 11 1 6 -2 11 -7 10 -5 -2 -9 2 -9 7 0 6 4 9 9 7 5 -1 8
4 7 10 -2 7 2 12 8 11 6 -1 11 4 11 12 0 8 -5 13 -11 12 -6 -1 -10 4 -8 11 1
6 -2 11 -7 10 -5 -2 -9 2 -9 7 0 6 4 9 9 7 5 -1 8 4 7 10 -2 7 2 12 8 11 6 -1
11 4 11 12 0 8 -5 13 -11 12 -6 -1 -10 4 -8 11 1 6 -2 11 -7 10 -5 -2 -9 2 -9
7 0 6 4 9 9 7 5 -1 8 4 7 10 -2 7 2 12 8 11 6 -1 11 4 11 12 0 8 -5 13 -11 12
-6 -1 -10 4 -8 11 1 6 -2 11 -7 10 -5 -2 -9 2 -9 7 0 6 4 9 9 7 5 -1 8 4 7 10
-2 7 2 12 8 11 6 -1 11 4 11 12 0 8 -5 13 -11 12 -6 -1 -10 4 -8 11 1 6 -2 11
-7 10 -5 -2 -9 2 -9 7 0 6 4 9 9 7 5 -1 8 4 7 10 -2 7 2 12 8 11 6 -1 11 4 11
12 0 8 -5 13 -11 12 -6 -1 -10 4 -8 11 1 6 -3 11 -10 10 -7 -2 -12 5 -13 15 0
9 5 16 10 15 6 -2 9 -6 8 -9 -1 -3 4 -6 11 -6 7 0 13 6 13 13 0 7 -5 12 -11
11 -6 -1 -10 4 -8 11 1 6 -2 11 -7 10 -5 -2 -9 2 -9 7 0 6 4 9 9 7 5 -1 8 4 7
10 -2 7 2 12 8 11 6 -1 11 4 11 12 0 8 -5 13 -11 12 -6 -1 -10 4 -8 11 1 6 -2
11 -7 10 -5 -2 -9 2 -9 7 0 6 4 9 9 7 5 -1 8 4 7 10 -2 7 2 12 8 11 6 -1 11 4
11 12 0 8 -5 13 -11 12 -6 -1 -10 4 -8 11 1 6 -2 11 -7 10 -5 -2 -9 2 -9 7 0
6 4 9 9 7 5 -1 8 4 7 10 -2 7 2 12 8 11 6 -1 11 4 11 12 0 8 -5 13 -11 12 -6
-1 -10 4 -8 11 1 6 -2 11 -7 10 -5 -2 -9 2 -9 7 0 6 4 9 9 7 5 -1 8 4 7 10 -2
7 2 12 8 11 6 -1 11 4 11 12 0 8 -5 13 -11 12 -6 -1 -10 4 -8 11 1 6 -2 11 -7
10 -5 -2 -9 2 -9 7 0 6 4 9 9 7 5 -1 8 4 7 10 -2 7 2 12 8 11 6 -1 11 4 11 12
0 8 -5 13 -11 12 -6 -1 -10 4 -8 11 1 6 -2 11 -7 10 -5 -2 -9 2 -9 7 0 6 4 9
9 7 5 -1 8 4 7 10 -2 7 2 12 8 11 6 -1 11 4 11 12 0 8 -5 13 -11 12 -6 -1 -10
4 -8 11 1 6 -2 11 -7 10 -5 -2 -9 2 -9 7 0 6 4 9 9 7 5 -1 8 4 7 10 -2 7 2 12
8 11 6 -1 11 4 11 12 0 8 -5 13 -11 12 -6 -1 -10 4 -8 11 1 6 -2 11 -7 10 -5
-2 -9 2 -9 7 0 6 4 9 9 7 5 -1 8 4 7 10 -2 7 2 12 8 11 6 -1 11 4 11 12 0 8
-5 13 -11 12 -6 -1 -10 4 -8 11 1 6 -2 11 -7 10 -5 -2 -9 2 -9 7 0 6 4 9 9 7
5 -1 8 4 7 10 -2 7 2 12 8 11 6 -1 11 4 11 12 0 8 -5 13 -11 12 -6 -1 -10 4
-8 11 1 6 -2 11 -7 10 -5 -2 -9 2 -9 7 0 6 4 9 9 7 5 -1 8 4 7 10 -2 7 2 12 8
11 6 -1 11 4 11 12 0 8 -5 13 -11 12 -6 -1 -10 4 -8 11 1 6 -2 11 -7 10 -5 -2
-9 2 -9 7 0 6 4 9 9 7 5 -1 8 4 7 10 -2 7 2 12 8 11 6 -1 11 4 11 12 0 8 -5
13 -11 12 -6 -1 -10 4 -8 11 1 6 -2 11 -7 10 -5 -2 -9 2 -9 7 0 6 4 9 9 7 5
-1 8 4 7 10 -2 7 2 12 8 11 6 -1 11 4 11 12 0 8 -5 13 -11 12 -6 -1 -10 4 -8
11 1 6 -2 11 -7 10 -5 -2 -9 2 -9 7 0 6 4 9 9 7 5 -1 8 4 7 10 -2 7 2 12 8 11
6 -1 11 4 11 12 0 8 -5 13 -11 12 -6 -1 -10 4 -8 11 1 6 -2 11 -7 10 -5 -2 -9
2 -9 7 0 6 4 9 9 7 5 -1 8 4 7 10 -2 7 2 12 8 11 6 -1 11 4 11 12 0 8 -5 13
-11 12 -6 -1 -10 4 -8 11 1 6 -2 11 -7 10 -5 -2 -9 2 -9 7 0 6 4 9 9 7 5 -1 8
4 7 10 -2 7 2 12 8 11 6 -1 11 4 11 12 0 8 -5 13 -11 12 -6 -1 -10 4 -8 11 1
6 -2 11 -7 10 -5 -2 -9 2 -9 7 0 6 4 9 9 7 5 -1 8 4 7 10 -2 7 2 12 8 11 6 -1
11 4 11 12 0 8 -5 13 -11 12 -6 -1 -10 4 -8 11 1 6 -2 11 -7 10 -5 -2 -9 2 -9
7 0 6 4 9 9 7 5 -1 8 4 7 10 -2 7 2 12 8 11 6 -1 11 4 11 12 0 8 -5 13 -11 12
-6 -1 -10 4 -8 11 1 6 -2 11 -7 10 -5 -2 -9 2 -9 7 0 6 4 9 9 7 5 -1 8 4 7 10
-2 7 2 12 8 11 6 -1 11 4 11 12 0 8 -5 13 -11 12 -6 -1 -10 4 -8 11 1 6 -2 11
-7 10 -5 -2 -9 2 -9 7 0 6 4 9 9 7 5 -1 8 4 7 10 -2 7 2 12 8 11 6 -1 11 4 11
12 0 8 -5 13 -11 12 -6 -1 -10 4 -8 11 1 6 -2 11 -7 10 -5 -2 -9 2 -9 7 0 6 4
9 9 7 5 -1 8 4 7 10 -2 7 2 12 8 11 6 -1 11 4 11 12 0 8 -5 13 -11 12 -6 -1
-10 4 -8 11 1 6 -2 11 -7 10 -5 -2 -9 2 -9 7 0 6 4 9 9 7 5 -1 8 4 7 10 -2 7
2 12 8 11 6 -1 11 4 11 12 0 8 -5 13 -11 12 -6 -1 -10 4 -8 11 1 6 -2 11 -7
10 -5 -2 -9 2 -9 7 0 6 4 9 9 7 5 -1 8 4 7 10 -2 7 2 12 8 11 6 -1 11 4 11 12
0 8 -5 13 -11 12 -6 -1 -10 4 -8 11 1 6 -2 11 -7 10 -5 -2 -9 2 -9 7 0 6 4 9
9 7 5 -1 8 4 7 10 -2 7 2 12 8 11 6 -1 11 4 11 12 0 8 -5 13 -11 12 -6 -1 -10
4 -8 11 1 6 -2 11 -7 10 -5 -2 -9 2 -9 7 0 6 4 9 9 7 5 -1 8 4 7 10 -2 7 2 12
8 11 6 -1 11 4 11 12 0 8 -5 13 -11 12 -6 -1 -10 4 -8 11 1 6 -2 11 -7 10 -5
-2 -9 2 -9 7 0 6 4 9 9 7 5 -1 8 4 7 10 -2 7 2 12 8 11 6 -1 11 4 11 12 0 8
-5 13 -11 12 -6 -1 -10 4 -8 11 1 6 -2 11 -7 10 -5 -2 -9 2 -9 7 0 6 4 9 9 7
5 -1 8 4 7 10 -2 7 2 12 8 11 6 -1 11 4 11 12 0 8 -5 13 -11 12 -6 -1 -10 4
-8 11 1 6 -2 11 -7 10 -5 -2 -9 2 -9 7 0 6 4 9 9 7 5 -1 8 4 7 10 -2 7 2 12 8
11 6 -1 11 4 11 12 0 8 -5 13 -11 12 -6 -1 -10 4 -8 11 1 6 -2 11 -7 10 -5 -2
-9 2 -9 7 0 6 4 9 9 7 5 -1 8 4 7 10 -2 7 2 12 8 11 6 -1 11 4 11 12 0 8 -5
13 -11 12 -6 -1 -10 4 -8 11 1 6 -2 11 -7 10 -5 -2 -9 2 -9 7 0 6 4 9 9 7 5
-1 8 4 7 10 -2 7 2 12 8 11 6 -1 11 4 11 12 0 8 -5 13 -11 12 -6 -1 -10 4 -8
11 1 6 -2 11 -7 10 -5 -2 -9 2 -9 7 0 6 4 9 9 7 5 -1 8 4 7 10 -2 7 2 12 8 11
6 -1 11 4 11 12 0 8 -5 13 -11 12 -6 -1 -10 4 -8 11 1 6 -2 11 -7 10 -5 -2 -9
2 -9 7 0 6 4 9 9 7 5 -1 8 4 7 10 -2 7 2 12 8 11 6 -1 11 4 11 12 0 8 -5 13
-11 12 -6 -1 -10 4 -8 11 1 6 -3 11 -10 10 -7 -2 -12 5 -13 15 0 9 5 17 10 16
6 -1 9 -4 8 -8 -1 -4 4 -8 11 -8 7 0 13 6 13 13 0 7 -5 12 -11 11 -6 -1 -10 4
-8 11 1 6 -2 11 -7 10 -5 -2 -9 2 -9 7 0 6 4 9 9 7 5 -1 8 4 7 10 -2 7 2 12 8
11 6 -1 11 4 11 12 0 8 -5 13 -11 12 -6 -1 -10 4 -8 11 1 6 -2 11 -7 10 -5 -2
-9 2 -9 7 0 6 4 9 9 7 5 -1 8 4 7 10 -2 7 2 12 8 11 6 -1 11 4 11 12 0 8 -5
13 -11 12 -6 -1 -10 4 -8 11 1 6 -2 11 -7 10 -5 -2 -9 2 -9 7 0 6 4 9 9 7 5
-1 8 4 7 10 -2 7 2 12 8 11 6 -1 11 4 11 12 0 8 -5 13 -11 12 -6 -1 -10 4 -8
11 1 6 -2 11 -7 10 -5 -2 -9 2 -9 7 0 6 4 9 9 7 5 -1 8 4 7 10 -2 7 2 12 8 11
6 -1 11 4 11 12 0 8 -5 13 -11 12 -6 -1 -10 4 -8 11 1 6 -1 11 -5 10 -5 -2 -8
2 -8 7 0 6 3 9 8 7 4 -1 6 4 5 10 -2 7 2 12 8 11 6 -1 11 4 11 12 0 8 -5 13
-11 12 -6 -1 -10 4 -8 11 1 6 -1 11 -5 10 -5 -2 -8 2 -8 7 0 6 3 9 8 7 4 -1 6
4 5 10 -2 7 2 12 8 11 6 -1 11 4 11 12 0 8 -5 13 -11 12 -6 -1 -10 4 -8 11 1
6 -1 11 -5 10 -5 -2 -8 2 -8 7 0 6 3 9 8 7 4 -1 6 4 5 10 -2 7 2 12 8 11 6 -1
11 4 11 12 0 8 -5 13 -11 12 -6 -1 -10 4 -8 11 1 6 -1 11 -5 10 -5 -2 -8 2 -8
7 0 6 3 9 8 7 4 -1 6 4 5 10 -2 7 2 12 8 11 6 -1 11 4 11 12 0 8 -5 13 -11 12
-6 -1 -10 4 -8 11 1 6 -1 11 -5 10 -5 -2 -8 2 -8 7 0 6 3 9 8 7 4 -1 6 4 5 10
-2 7 2 12 8 11 6 -1 11 4 11 12 0 8 -5 13 -11 12 -6 -1 -10 4 -8 11 1 6 -1 11
-5 10 -5 -2 -8 2 -8 7 0 6 3 9 8 7 4 -1 6 4 5 10 -2 7 2 12 8 11 6 -1 11 4 11
12 0 8 -5 13 -11 12 -6 -1 -10 4 -8 11 1 6 -1 11 -5 10 -5 -2 -8 2 -8 7 0 6 3
9 8 7 4 -1 6 4 5 10 -2 7 2 12 8 11 6 -1 11 4 11 12 0 8 -5 13 -11 12 -6 -1
-10 4 -8 11 1 6 -1 11 -5 10 -5 -2 -8 2 -8 7 0 6 3 9 8 7 4 -1 6 4 5 10 -2 7
2 12 8 11 6 -1 11 4 11 12 0 8 -5 13 -11 12 -6 -1 -10 4 -8 11 1 6 -1 11 -5
10 -5 -2 -8 2 -8 7 0 6 3 9 8 7 4 -1 6 4 5 10 -2 7 2 12 8 11 6 -1 11 4 11 12
0 8 -5 13 -11 12 -6 -1 -10 4 -8 11 1 6 -1 11 -5 10 -5 -2 -8 2 -8 7 0 6 3 9
8 7 4 -1 6 4 5 10 -2 7 2 12 8 11 6 -1 11 4 11 12 0 8 -5 13 -11 12 -6 -1 -10
4 -8 11 1 6 -1 11 -5 10 -5 -2 -8 2 -8 7 0 6 3 9 8 7 4 -1 6 4 5 10 -2 7 2 12
8 11 6 -1 11 4 11 12 0 8 -5 13 -11 12 -6 -1 -10 4 -8 11 1 6 -1 11 -5 10 -5
-2 -8 2 -8 7 0 6 3 9 8 7 4 -1 6 4 5 10 -2 7 2 12 8 11 6 -1 11 4 11 12 0 8
-5 13 -11 12 -6 -1 -10 4 -8 11 1 6 -1 11 -5 10 -5 -2 -8 2 -8 7 0 6 3 9 8 7
4 -1 6 4 5 10 -2 7 2 12 8 11 6 -1 11 4 11 12 0 8 -5 13 -11 12 -6 -1 -10 4
-8 11 1 6 -1 11 -5 10 -5 -2 -8 2 -8 7 0 6 3 9 8 7 4 -1 6 4 5 10 -2 7 2 12 8
11 6 -1 11 4 11 12 0 8 -5 13 -11 12 -6 -1 -10 4 -8 11 1 6 -1 11 -5 10 -5 -2
-8 2 -8 7 0 6 3 9 8 7 4 -1 6 4 5 10 -2 7 2 12 8 11 6 -1 11 4 11 12 0 8 -5
13 -11 12 -6 -1 -10 4 -8 11 1 6 -1 11 -5 10 -5 -2 -8 2 -8 7 0 6 3 9 8 7 4
-1 6 4 5 10 -2 7 2 12 8 11 6 -1 11 4 11 12 0 8 -5 13 -11 12 -6 -1 -10 4 -8
11 1 6 -1 11 -5 10 -5 -2 -8 2 -8 7 0 6 3 9 8 7 4 -1 6 4 5 10 -2 7 2 12 8 11
6 -1 11 4 11 12 0 8 -5 13 -11 12 -6 -1 -10 4 -8 11 1 6 -1 11 -5 10 -5 -2 -9
2 -9 7 -1 6 2 9 7 7 5 -1 8 4 7 10 -2 7 2 12 8 11 6 -1 11 4 11 12 0 8 -5 13
-11 12 -6 -1 -10 4 -8 11 1 6 -2 11 -7 10 -5 -2 -9 2 -9 7 0 6 4 9 9 7 5 -1 8
4 7 10 -2 7 2 12 8 11 6 -1 11 4 11 12 0 8 -5 13 -11 12 -6 -1 -10 4 -8 11 1
6 -2 11 -7 10 -5 -2 -9 2 -9 7 0 6 4 9 9 7 5 -1 8 4 7 10 -2 7 2 12 8 11 6 -1
11 4 11 12 0 8 -5 13 -11 12 -6 -1 -10 4 -8 11 1 6 -2 11 -7 10 -5 -2 -9 2 -9
7 0 6 4 9 9 7 5 -1 8 4 7 10 -2 7 2 12 8 11 6 -1 11 4 11 12 0 8 -5 13 -11 12
-6 -1 -10 4 -8 11 1 6 -1 11 -5 10 -5 -2 -8 2 -8 7 0 6 3 9 8 7 4 -1 6 4 5 10
-2 7 2 12 8 11 6 -1 11 4 11 12 0 8 -5 13 -11 12 -6 -1 -10 4 -8 11 1 6 -1 11
-5 10 -5 -2 -8 2 -8 7 0 6 3 9 8 7 4 -1 6 4 5 10 -2 7 2 12 8 11 6 -1 11 4 11
12 0 8 -5 13 -11 12 -6 -1 -10 4 -8 11 1 6 -1 11 -5 10 -5 -2 -8 2 -8 7 0 6 3
9 8 7 4 -1 6 4 5 10 -2 7 2 12 8 11 6 -1 11 4 11 12 0 8 -5 13 -11 12 -6 -1
-10 4 -8 11 1 6 -1 11 -5 10 -5 -2 -8 2 -8 7 0 6 3 9 8 7 4 -1 6 4 5 10 -2 7
2 12 8 11 6 -1 11 4 11 12 0 8 -5 13 -11 12 -6 -1 -10 4 -8 11 1 6 -1 11 -5
10 -5 -2 -8 2 -8 7 0 6 3 9 8 7 4 -1 6 4 5 10 -2 7 2 12 8 11 6 -1 11 4 11 12
0 8 -5 13 -11 12 -6 -1 -10 4 -8 11 1 6 -2 11 -7 10 -5 -2 -8 2 -7 7 0 6 4 9
9 7 4 -1 6 4 5 10 -2 7 2 12 8 11 6 -1 11 4 11 12 0 8 -5 13 -11 12 -6 -1 -10
4 -8 11 1 6 -4 11 -10 10 -7 -2 -12 2 -11 8 1 6 -4 11 -12 11 -8 0 -13 -3 -12
-6 1 -3 -2 -6 -8 -6 -5 0 -9 3 -8 7 2 4 -2105 8 -4682 8 l-4685 0 0 -5400z
m9350 5375 c0 4 6 2 14 -4 10 -9 16 -9 21 -1 5 8 13 6 26 -6 19 -17 19 -18 -1
-39 l-20 -22 20 -18 20 -18 -20 -22 -20 -22 20 -18 20 -18 -20 -22 -20 -22 20
-18 20 -18 -20 -22 -20 -22 20 -18 20 -18 -20 -22 -20 -22 20 -18 20 -18 -20
-22 -20 -22 20 -18 20 -18 -20 -22 -20 -22 20 -18 20 -18 -20 -22 -20 -22 20
-18 20 -18 -20 -22 -20 -22 20 -18 20 -18 -20 -22 -20 -22 20 -18 20 -18 -20
-22 -20 -22 20 -18 20 -18 -20 -22 -20 -22 20 -18 20 -18 -20 -22 -20 -22 20
-18 20 -18 -20 -22 -20 -22 20 -18 20 -18 -20 -22 -20 -22 20 -18 20 -18 -20
-22 -20 -22 20 -18 20 -18 -20 -22 -20 -22 20 -18 20 -18 -20 -22 -20 -22 20
-18 20 -18 -20 -22 -20 -22 20 -18 20 -18 -20 -22 -20 -22 20 -18 20 -18 -20
-22 -20 -22 20 -18 20 -18 -20 -22 -20 -22 20 -18 20 -18 -20 -22 -20 -22 20
-18 20 -18 -20 -22 -20 -22 20 -18 20 -18 -20 -22 -20 -22 20 -18 20 -18 -20
-22 -20 -22 20 -18 20 -18 -20 -22 -20 -22 20 -18 20 -18 -20 -22 -20 -22 20
-18 20 -18 -20 -22 -20 -22 20 -18 20 -18 -20 -22 -20 -22 20 -18 20 -18 -21
-23 c-13 -14 -17 -24 -10 -29 6 -3 8 -12 4 -18 -13 -22 -11 -35 8 -53 19 -17
19 -18 -1 -39 l-20 -22 20 -18 20 -18 -20 -22 -20 -22 20 -18 20 -18 -20 -22
-20 -22 20 -18 20 -18 -20 -22 -20 -22 20 -18 20 -18 -20 -22 -20 -22 20 -18
20 -18 -20 -22 -20 -22 20 -18 20 -18 -20 -22 -20 -22 20 -18 20 -18 -20 -22
-20 -22 20 -18 20 -18 -20 -22 -20 -22 20 -18 20 -18 -20 -22 -20 -22 20 -18
20 -18 -20 -22 -20 -22 20 -18 20 -18 -20 -22 -20 -22 20 -18 20 -18 -20 -22
-20 -22 20 -18 20 -18 -20 -22 -20 -22 20 -18 20 -18 -20 -22 -20 -22 20 -18
20 -18 -20 -22 -20 -22 20 -18 20 -18 -20 -22 -20 -22 20 -18 20 -18 -20 -22
-20 -22 20 -18 20 -18 -20 -22 -20 -22 20 -18 20 -18 -20 -22 -20 -22 20 -18
20 -18 -20 -22 -20 -22 20 -18 20 -18 -20 -22 -20 -22 20 -18 20 -18 -20 -22
-20 -22 20 -18 20 -18 -20 -22 -20 -22 20 -18 20 -18 -20 -22 -20 -22 20 -18
20 -18 -20 -22 -20 -22 20 -18 20 -18 -20 -22 -20 -22 20 -18 20 -18 -20 -22
-20 -22 20 -18 20 -18 -20 -22 -20 -22 20 -18 20 -18 -20 -22 -20 -22 20 -18
20 -18 -21 -23 c-13 -14 -17 -24 -10 -29 6 -3 8 -12 4 -18 -13 -22 -11 -35 8
-53 19 -17 19 -18 -1 -39 l-20 -22 20 -18 20 -18 -20 -22 -20 -22 20 -18 20
-18 -20 -22 -20 -22 20 -18 20 -18 -20 -22 -20 -22 20 -18 20 -18 -20 -22 -20
-22 20 -18 20 -18 -20 -22 -20 -22 20 -18 20 -18 -20 -22 -20 -22 20 -18 20
-18 -20 -22 -20 -22 20 -18 20 -18 -20 -22 -20 -22 20 -18 20 -18 -20 -22 -20
-22 20 -18 20 -18 -20 -22 -20 -22 20 -18 20 -18 -20 -22 -20 -22 20 -18 20
-18 -20 -22 -20 -22 20 -18 20 -18 -20 -22 -20 -22 20 -18 20 -18 -20 -22 -20
-22 20 -18 20 -18 -20 -22 -20 -22 20 -18 20 -18 -20 -22 -20 -22 20 -18 20
-18 -20 -22 -20 -22 20 -18 20 -18 -20 -22 -20 -22 20 -18 20 -18 -20 -22 -20
-22 20 -18 20 -18 -20 -22 -20 -22 20 -18 20 -18 -20 -22 -20 -22 20 -18 20
-18 -20 -22 -20 -22 20 -18 20 -18 -20 -22 -20 -22 20 -18 20 -18 -20 -22 -20
-22 20 -18 20 -18 -20 -22 -20 -22 20 -18 20 -18 -20 -22 -20 -22 20 -18 20
-18 -20 -22 -20 -22 20 -18 20 -18 -20 -22 -20 -22 20 -18 20 -18 -20 -22 -20
-22 20 -18 20 -18 -21 -23 c-13 -14 -17 -24 -10 -29 6 -3 8 -12 4 -18 -13 -22
-11 -35 8 -53 19 -17 19 -18 -1 -39 l-20 -22 20 -18 20 -18 -20 -22 -20 -22
20 -18 20 -18 -20 -22 -20 -22 20 -18 20 -18 -20 -22 -20 -22 20 -18 20 -18
-20 -22 -20 -22 20 -18 20 -18 -20 -22 -20 -22 20 -18 20 -18 -20 -22 -20 -22
20 -18 20 -18 -20 -22 -20 -22 20 -18 20 -18 -20 -22 -20 -22 20 -18 20 -18
-20 -22 -20 -22 20 -18 20 -18 -20 -22 -20 -22 20 -18 20 -18 -20 -22 -20 -22
20 -18 20 -18 -20 -22 -20 -22 20 -18 20 -18 -20 -22 -20 -22 20 -18 20 -18
-20 -22 -20 -22 20 -18 20 -18 -20 -22 -20 -22 20 -18 20 -18 -20 -22 -20 -22
20 -18 20 -18 -20 -22 -20 -22 20 -18 20 -18 -20 -22 -20 -22 20 -18 20 -18
-20 -22 -20 -22 20 -18 20 -18 -20 -22 -20 -22 20 -18 20 -18 -20 -22 -20 -22
20 -18 20 -18 -20 -22 -20 -22 20 -18 20 -18 -20 -22 -20 -22 20 -18 20 -18
-20 -22 -20 -22 20 -18 20 -18 -20 -22 -20 -22 20 -18 20 -18 -20 -22 -20 -22
20 -18 20 -18 -20 -22 -20 -22 20 -18 20 -18 -20 -22 -20 -22 20 -18 20 -18
-20 -22 -20 -22 20 -18 20 -18 -21 -23 c-14 -15 -17 -24 -9 -29 8 -5 7 -11 -2
-22 -16 -20 -17 -17 10 -46 l22 -24 -20 -18 -20 -18 20 -22 20 -22 -20 -18
-20 -18 20 -22 20 -22 -20 -18 -20 -18 20 -22 20 -22 -20 -18 -20 -18 20 -22
20 -22 -20 -18 -20 -18 20 -22 20 -22 -20 -18 -20 -18 20 -22 20 -22 -20 -18
-20 -18 22 -24 c12 -13 20 -23 17 -24 -20 -5 -77 -4 -76 2 1 4 -2 7 -8 7 -5 0
-9 -3 -8 -7 1 -4 -4 -8 -11 -8 -7 0 -13 6 -13 13 0 7 3 12 6 11 3 -1 6 3 6 8
0 6 -3 9 -6 8 -3 -1 -6 4 -6 12 0 8 3 13 6 12 3 -1 6 3 6 8 0 6 -3 9 -6 8 -3
-1 -6 4 -6 12 0 8 3 13 6 12 3 -1 6 3 6 8 0 6 -3 9 -6 8 -3 -1 -6 4 -6 12 0 8
3 13 6 12 3 -1 6 3 6 8 0 6 -3 9 -6 8 -3 -1 -6 4 -6 12 0 8 3 13 6 12 3 -1 6
3 6 8 0 6 -3 9 -6 8 -3 -1 -6 4 -6 12 0 8 3 13 6 12 3 -1 6 3 6 8 0 6 -3 9 -6
8 -3 -1 -6 4 -6 12 0 8 3 13 6 12 3 -1 6 3 6 8 0 6 -3 9 -6 8 -3 -1 -6 4 -6
12 0 8 3 13 6 12 3 -1 6 3 6 8 0 6 -3 9 -6 8 -3 -1 -6 4 -6 12 0 8 3 13 6 12
3 -1 6 3 6 8 0 6 -3 9 -6 8 -3 -1 -6 4 -6 12 0 8 3 13 6 12 3 -1 6 3 6 8 0 6
-3 9 -6 8 -3 -1 -6 4 -6 12 0 8 3 13 6 12 3 -1 6 3 6 8 0 6 -3 9 -6 8 -3 -1
-6 4 -6 12 0 8 3 13 6 12 3 -1 6 3 6 8 0 6 -3 9 -6 8 -3 -1 -6 4 -6 12 0 8 3
13 6 12 3 -1 6 3 6 8 0 6 -3 9 -6 8 -3 -1 -6 4 -6 12 0 8 3 13 6 12 3 -1 6 3
6 8 0 6 -3 9 -6 8 -3 -1 -6 4 -6 12 0 8 3 13 6 12 3 -1 6 3 6 8 0 6 -2 9 -5 8
-4 -1 -6 9 -6 22 0 13 2 23 6 22 3 -1 5 3 5 8 0 6 -3 9 -6 8 -3 -1 -6 4 -6 12
0 8 3 13 6 12 3 -1 6 3 6 8 0 6 -3 9 -6 8 -3 -1 -6 4 -6 12 0 8 3 13 6 12 3
-1 6 3 6 8 0 6 -3 9 -6 8 -3 -1 -6 4 -6 12 0 8 3 13 6 12 3 -1 6 3 6 8 0 6 -3
9 -6 8 -3 -1 -6 4 -6 12 0 8 3 13 6 12 3 -1 6 3 6 8 0 6 -3 9 -6 8 -3 -1 -6 4
-6 12 0 8 3 13 6 12 3 -1 6 3 6 8 0 6 -3 9 -6 8 -3 -1 -6 4 -6 12 0 8 3 13 6
12 3 -1 6 3 6 8 0 6 -3 9 -6 8 -3 -1 -6 4 -6 12 0 8 3 13 6 12 3 -1 6 3 6 8 0
6 -3 9 -6 8 -3 -1 -6 4 -6 12 0 8 3 13 6 12 3 -1 6 3 6 8 0 6 -3 9 -6 8 -3 -1
-6 4 -6 12 0 8 3 13 6 12 3 -1 6 3 6 8 0 6 -3 9 -6 8 -3 -1 -6 4 -6 12 0 8 3
13 6 12 3 -1 6 3 6 8 0 6 -3 9 -6 8 -3 -1 -6 4 -6 12 0 8 3 13 6 12 3 -1 6 3
6 8 0 6 -3 9 -6 8 -3 -1 -6 4 -6 12 0 8 3 13 6 12 3 -1 6 3 6 8 0 6 -3 9 -6 8
-3 -1 -6 4 -6 12 0 8 3 13 6 12 3 -1 6 3 6 8 0 6 -3 9 -6 8 -3 -1 -6 4 -6 12
0 8 3 13 6 12 3 -1 6 3 6 8 0 6 -3 9 -6 8 -3 -1 -6 4 -6 12 0 8 3 13 6 12 3
-1 6 3 6 8 0 6 -3 9 -6 8 -3 -1 -6 4 -6 12 0 8 3 13 6 12 3 -1 6 3 6 8 0 6 -3
9 -6 8 -3 -1 -6 4 -6 12 0 8 3 13 6 12 3 -1 6 3 6 8 0 6 -3 9 -6 8 -3 -1 -6 4
-6 12 0 8 3 13 6 12 3 -1 6 3 6 8 0 6 -3 9 -6 8 -3 -1 -6 4 -6 12 0 8 3 13 6
12 3 -1 6 3 6 8 0 6 -3 9 -6 8 -3 -1 -6 4 -6 12 0 8 3 13 6 12 3 -1 6 3 6 8 0
6 -3 9 -6 8 -3 -1 -6 4 -6 12 0 8 3 13 6 12 3 -1 6 3 6 8 0 6 -3 9 -6 8 -3 -1
-6 4 -6 12 0 8 3 13 6 12 3 -1 6 3 6 8 0 6 -3 9 -6 8 -3 -1 -6 4 -6 12 0 8 3
13 6 12 3 -1 6 3 6 8 0 6 -3 9 -6 8 -3 -1 -6 4 -6 12 0 8 3 13 6 12 3 -1 6 3
6 8 0 6 -3 9 -6 8 -3 -1 -6 4 -6 12 0 8 3 13 6 12 3 -1 6 3 6 8 0 6 -3 9 -6 8
-3 -1 -6 4 -6 12 0 8 3 13 6 12 3 -1 6 3 6 8 0 6 -3 9 -6 8 -3 -1 -6 4 -6 12
0 8 3 13 6 12 3 -1 6 3 6 8 0 6 -3 9 -6 8 -3 -1 -6 4 -6 12 0 8 3 13 6 12 3
-1 6 3 6 8 0 6 -3 9 -6 8 -3 -1 -6 4 -6 12 0 8 3 13 6 12 3 -1 6 3 6 8 0 6 -3
9 -6 8 -3 -1 -6 4 -6 12 0 8 3 13 6 12 3 -1 6 3 6 8 0 6 -3 9 -6 8 -3 -1 -6 4
-6 12 0 8 3 13 6 12 3 -1 6 3 6 8 0 6 -3 9 -6 8 -3 -1 -6 4 -6 12 0 8 3 13 6
12 3 -1 6 3 6 8 0 6 -3 9 -6 8 -3 -1 -6 4 -6 12 0 8 3 13 6 12 3 -1 6 3 6 8 0
6 -3 9 -6 8 -3 -1 -6 4 -6 12 0 8 3 13 6 12 3 -1 6 3 6 8 0 6 -3 9 -6 8 -3 -1
-6 4 -6 12 0 8 3 13 6 12 3 -1 6 3 6 8 0 6 -3 9 -6 8 -3 -1 -6 4 -6 12 0 8 3
13 6 12 3 -1 6 3 6 8 0 6 -3 9 -6 8 -3 -1 -6 4 -6 12 0 8 3 13 6 12 3 -1 6 3
6 8 0 6 -3 9 -6 8 -3 -1 -6 4 -6 12 0 8 3 13 6 12 3 -1 6 3 6 8 0 6 -3 9 -6 8
-3 -1 -6 4 -6 12 0 8 3 13 6 12 3 -1 6 3 6 8 0 6 -3 9 -6 8 -3 -1 -6 4 -6 12
0 8 3 13 6 12 3 -1 6 3 6 8 0 6 -3 9 -6 8 -3 -1 -6 4 -6 12 0 8 3 13 6 12 3
-1 6 3 6 8 0 6 -3 9 -6 8 -3 -1 -6 4 -6 12 0 8 3 13 6 12 3 -1 6 3 6 8 0 6 -3
9 -6 8 -3 -1 -6 4 -6 12 0 8 3 13 6 12 3 -1 6 3 6 8 0 6 -3 9 -6 8 -3 -1 -6 4
-6 12 0 8 3 13 6 12 3 -1 6 3 6 8 0 6 -3 9 -6 8 -3 -1 -6 4 -6 12 0 8 3 13 6
12 3 -1 6 3 6 8 0 6 -3 9 -6 8 -3 -1 -6 4 -6 12 0 8 3 13 6 12 3 -1 6 3 6 8 0
6 -3 9 -6 8 -3 -1 -6 4 -6 12 0 8 3 13 6 12 3 -1 6 3 6 8 0 6 -3 9 -6 8 -3 -1
-6 4 -6 12 0 8 3 13 6 12 3 -1 6 3 6 8 0 6 -3 9 -6 8 -3 -1 -6 4 -6 12 0 8 3
13 6 12 3 -1 6 3 6 8 0 6 -3 9 -6 8 -3 -1 -6 4 -6 12 0 8 3 13 6 12 3 -1 6 3
6 8 0 6 -3 9 -6 8 -3 -1 -6 4 -6 12 0 8 3 13 6 12 3 -1 6 3 6 8 0 6 -3 9 -6 8
-3 -1 -6 4 -6 12 0 8 3 13 6 12 3 -1 6 3 6 8 0 6 -3 9 -6 8 -3 -1 -6 4 -6 12
0 8 3 13 6 12 3 -1 6 3 6 8 0 6 -3 9 -6 8 -3 -1 -6 4 -6 12 0 8 3 13 6 12 3
-1 6 3 6 8 0 6 -3 9 -6 8 -3 -1 -6 4 -6 12 0 8 3 13 6 12 3 -1 6 3 6 8 0 6 -3
9 -6 8 -3 -1 -6 4 -6 12 0 8 3 13 6 12 3 -1 6 3 6 8 0 6 -3 9 -6 8 -3 -1 -6 4
-6 12 0 8 3 13 6 12 3 -1 6 3 6 8 0 6 -3 9 -6 8 -3 -1 -6 4 -6 12 0 8 3 13 6
12 3 -1 6 3 6 8 0 6 -3 9 -6 8 -3 -1 -6 4 -6 12 0 8 3 13 6 12 3 -1 6 3 6 8 0
6 -3 9 -6 8 -3 -1 -6 4 -6 12 0 8 3 13 6 12 3 -1 6 3 6 8 0 6 -3 9 -6 8 -3 -1
-6 4 -6 12 0 8 3 13 6 12 3 -1 6 3 6 8 0 6 -3 9 -6 8 -3 -1 -6 4 -6 12 0 8 3
13 6 12 3 -1 6 3 6 8 0 6 -2 9 -5 8 -4 -1 -6 9 -6 22 0 13 2 23 6 22 3 -1 5 3
5 8 0 6 -3 9 -6 8 -3 -1 -6 4 -6 12 0 8 3 13 6 12 3 -1 6 3 6 8 0 6 -3 9 -6 8
-3 -1 -6 4 -6 12 0 8 3 13 6 12 3 -1 6 3 6 8 0 6 -3 9 -6 8 -3 -1 -6 4 -6 12
0 8 3 13 6 12 3 -1 6 3 6 8 0 6 -3 9 -6 8 -3 -1 -6 4 -6 12 0 8 3 13 6 12 3
-1 6 3 6 8 0 6 -3 9 -6 8 -3 -1 -6 4 -6 12 0 8 3 13 6 12 3 -1 6 3 6 8 0 6 -3
9 -6 8 -3 -1 -6 4 -6 12 0 8 3 13 6 12 3 -1 6 3 6 8 0 6 -3 9 -6 8 -3 -1 -6 4
-6 12 0 8 3 13 6 12 3 -1 6 3 6 8 0 6 -3 9 -6 8 -3 -1 -6 4 -6 12 0 8 3 13 6
12 3 -1 6 3 6 8 0 6 -3 9 -6 8 -3 -1 -6 4 -6 12 0 8 3 13 6 12 3 -1 6 3 6 8 0
6 -3 9 -6 8 -3 -1 -6 4 -6 12 0 8 3 13 6 12 3 -1 6 3 6 8 0 6 -3 9 -6 8 -3 -1
-6 4 -6 12 0 8 3 13 6 12 3 -1 6 3 6 8 0 6 -3 9 -6 8 -3 -1 -6 4 -6 12 0 8 3
13 6 12 3 -1 6 3 6 8 0 6 -3 9 -6 8 -3 -1 -6 4 -6 12 0 8 3 13 6 12 3 -1 6 3
6 8 0 6 -3 9 -6 8 -3 -1 -6 4 -6 12 0 8 3 13 6 12 3 -1 6 3 6 8 0 6 -3 9 -6 8
-3 -1 -6 4 -6 12 0 8 3 13 6 12 3 -1 6 3 6 8 0 6 -3 9 -6 8 -3 -1 -6 4 -6 12
0 8 3 13 6 12 3 -1 6 3 6 8 0 6 -3 9 -6 8 -3 -1 -6 4 -6 12 0 8 3 13 6 12 3
-1 6 3 6 8 0 6 -3 9 -6 8 -3 -1 -6 4 -6 12 0 8 3 13 6 12 3 -1 6 3 6 8 0 6 -3
9 -6 8 -3 -1 -6 4 -6 12 0 8 3 13 6 12 3 -1 6 3 6 8 0 6 -3 9 -6 8 -3 -1 -6 4
-6 12 0 8 3 13 6 12 3 -1 6 3 6 8 0 6 -3 9 -6 8 -3 -1 -6 4 -6 12 0 8 3 13 6
12 3 -1 6 3 6 8 0 6 -3 9 -6 8 -3 -1 -6 4 -6 12 0 8 3 13 6 12 3 -1 6 3 6 8 0
6 -3 9 -6 8 -3 -1 -6 4 -6 12 0 8 3 13 6 12 3 -1 6 3 6 8 0 6 -3 9 -6 8 -3 -1
-6 4 -6 12 0 8 3 13 6 12 3 -1 6 3 6 8 0 6 -3 9 -6 8 -3 -1 -6 4 -6 12 0 8 3
13 6 12 3 -1 6 3 6 8 0 6 -3 9 -6 8 -3 -1 -6 4 -6 12 0 8 3 13 6 12 3 -1 6 3
6 8 0 6 -3 9 -6 8 -3 -1 -6 4 -6 12 0 8 3 13 6 12 3 -1 6 3 6 8 0 6 -3 9 -6 8
-3 -1 -6 4 -6 12 0 8 4 13 8 12 4 -1 7 3 7 8 0 6 -3 9 -7 8 -4 -1 -8 4 -8 12
0 8 4 13 8 12 4 -1 7 3 7 8 0 6 -3 9 -7 8 -4 -1 -8 4 -8 12 0 8 4 13 8 12 4
-1 7 3 7 8 0 6 -3 9 -7 8 -4 -1 -8 4 -8 12 0 8 4 13 8 12 4 -1 7 3 7 8 0 6 -3
9 -7 8 -4 -1 -8 4 -8 12 0 8 4 13 8 12 4 -1 7 3 7 8 0 6 -3 9 -7 8 -4 -1 -8 4
-8 12 0 8 4 13 8 12 4 -1 7 3 7 8 0 6 -3 9 -7 8 -4 -1 -8 4 -8 12 0 8 4 13 8
12 4 -1 7 3 7 8 0 6 -3 9 -7 8 -4 -1 -8 4 -8 12 0 8 4 13 8 12 4 -1 7 3 7 8 0
6 -3 9 -7 8 -4 -1 -8 4 -8 12 0 8 4 13 8 12 4 -1 7 3 7 8 0 6 -3 9 -7 8 -4 -1
-8 4 -8 12 0 8 4 13 8 12 4 -1 7 3 7 8 0 6 -3 9 -7 8 -4 -1 -8 4 -8 12 0 8 4
13 8 12 4 -1 7 3 7 8 0 6 -3 9 -7 8 -4 -1 -8 4 -8 12 0 8 4 13 8 12 4 -1 7 3
7 8 0 6 -3 9 -7 8 -4 -1 -8 4 -8 12 0 8 4 13 8 12 4 -1 7 3 7 8 0 6 -3 9 -7 8
-4 -1 -8 4 -8 12 0 8 4 13 8 12 4 -1 7 3 7 8 0 6 -3 9 -7 8 -4 -1 -8 4 -8 12
0 8 4 13 8 12 4 -1 7 3 7 8 0 6 -3 9 -7 8 -4 -1 -8 4 -8 12 0 8 4 13 8 12 4
-1 7 3 7 8 0 6 -3 9 -7 8 -4 -1 -8 4 -8 12 0 8 4 13 8 12 4 -1 7 3 7 8 0 6 -3
9 -7 8 -4 -1 -8 4 -8 12 0 8 4 13 8 12 4 -1 7 3 7 8 0 6 -3 9 -7 8 -4 -1 -8 4
-8 12 0 8 4 13 8 12 4 -1 7 3 7 8 0 6 -3 9 -7 8 -4 -1 -8 4 -8 12 0 8 4 13 8
12 4 -1 7 3 7 8 0 6 -3 9 -7 8 -4 -1 -8 4 -8 12 0 8 4 13 8 12 4 -1 7 3 7 8 0
6 -3 9 -7 8 -4 -1 -8 4 -8 12 0 8 4 13 8 12 4 -1 7 3 7 8 0 6 -3 9 -7 8 -4 -1
-8 4 -8 12 0 8 4 13 8 12 4 -1 7 3 7 8 0 6 -3 9 -7 8 -4 -1 -8 4 -8 12 0 8 4
13 8 12 4 -1 7 3 7 8 0 6 -3 9 -7 8 -4 -1 -8 4 -8 12 0 8 4 13 8 12 4 -1 7 3
7 8 0 6 -3 9 -7 8 -4 -1 -8 4 -8 12 0 8 4 13 8 12 4 -1 7 3 7 8 0 6 -3 9 -7 8
-4 -1 -8 4 -8 12 0 8 4 13 8 12 4 -1 7 3 7 8 0 6 -3 9 -7 8 -4 -1 -8 4 -8 12
0 8 4 13 8 12 4 -1 7 3 7 8 0 6 -3 9 -7 8 -4 -1 -8 4 -8 12 0 8 4 13 8 12 4
-1 7 3 7 8 0 6 -3 9 -7 8 -4 -1 -8 4 -8 12 0 8 4 13 8 12 4 -1 7 3 7 8 0 6 -3
9 -7 8 -4 -1 -8 4 -8 12 0 8 4 13 8 12 4 -1 7 3 7 8 0 6 -3 9 -7 8 -4 -1 -8 4
-8 12 0 8 4 13 8 12 4 -1 7 3 7 8 0 6 -3 9 -7 8 -4 -1 -8 4 -8 12 0 8 4 13 8
12 4 -1 7 3 7 8 0 6 -3 9 -7 8 -4 -1 -8 4 -8 12 0 8 4 13 8 12 4 -1 7 3 7 8 0
6 -3 9 -7 8 -4 -1 -8 4 -8 12 0 8 4 13 8 12 4 -1 7 3 7 8 0 6 -3 9 -7 8 -4 -1
-7 9 -7 22 0 13 3 23 7 22 4 -1 7 3 7 8 0 6 -3 9 -7 8 -4 -1 -8 4 -8 12 0 8 4
13 8 12 4 -1 7 3 7 8 0 6 -3 9 -7 8 -4 -1 -8 4 -8 12 0 8 4 13 8 12 4 -1 7 3
7 8 0 6 -3 9 -7 8 -4 -1 -8 4 -8 12 0 8 4 13 8 12 4 -1 7 3 7 8 0 6 -3 9 -7 8
-4 -1 -8 4 -8 12 0 8 4 13 8 12 4 -1 7 3 7 8 0 6 -3 9 -7 8 -4 -1 -8 4 -8 12
0 8 4 13 8 12 4 -1 7 3 7 8 0 6 -3 9 -7 8 -4 -1 -8 4 -8 12 0 8 4 13 8 12 4
-1 7 3 7 8 0 6 -3 9 -7 8 -4 -1 -8 4 -8 12 0 8 4 13 8 12 4 -1 7 3 7 8 0 6 -3
9 -7 8 -4 -1 -8 4 -8 12 0 8 4 13 8 12 4 -1 7 3 7 8 0 6 -3 9 -7 8 -4 -1 -8 4
-8 12 0 8 4 13 8 12 4 -1 7 3 7 8 0 6 -3 9 -7 8 -4 -1 -8 4 -8 12 0 8 4 13 8
12 4 -1 7 3 7 8 0 6 -3 9 -7 8 -4 -1 -8 4 -8 12 0 8 4 13 8 12 4 -1 7 3 7 8 0
6 -3 9 -7 8 -4 -1 -8 4 -8 12 0 8 4 13 8 12 4 -1 7 3 7 8 0 6 -3 9 -7 8 -4 -1
-8 4 -8 12 0 8 4 13 8 12 4 -1 7 3 7 8 0 6 -3 9 -7 8 -4 -1 -8 4 -8 12 0 8 4
13 8 12 4 -1 7 3 7 8 0 6 -3 9 -7 8 -4 -1 -8 4 -8 12 0 8 4 13 8 12 4 -1 7 3
7 8 0 6 -3 9 -7 8 -4 -1 -8 4 -8 12 0 8 4 13 8 12 4 -1 7 3 7 8 0 6 -3 9 -7 8
-4 -1 -8 4 -8 12 0 8 4 13 8 12 4 -1 7 3 7 8 0 6 -3 9 -7 8 -4 -1 -8 4 -8 12
0 8 4 13 8 12 4 -1 7 3 7 8 0 6 -3 9 -7 8 -4 -1 -8 4 -8 12 0 8 4 13 8 12 4
-1 7 3 7 8 0 6 -3 9 -7 8 -4 -1 -8 4 -8 12 0 8 4 13 8 12 4 -1 7 3 7 8 0 6 -3
9 -7 8 -4 -1 -8 4 -8 12 0 8 4 13 8 12 4 -1 7 3 7 8 0 6 -3 9 -7 8 -4 -1 -8 4
-8 12 0 8 4 13 8 12 4 -1 7 3 7 8 0 6 -3 9 -7 8 -4 -1 -8 4 -8 12 0 8 4 13 8
12 4 -1 7 3 7 8 0 6 -3 9 -7 8 -4 -1 -8 4 -8 12 0 8 4 13 8 12 4 -1 7 3 7 8 0
6 -3 9 -7 8 -4 -1 -8 4 -8 12 0 8 4 13 8 12 4 -1 7 3 7 8 0 6 -3 9 -7 8 -4 -1
-8 4 -8 12 0 8 4 13 8 12 4 -1 7 3 7 8 0 6 -3 9 -7 8 -4 -1 -8 4 -8 12 0 8 4
13 8 12 4 -1 7 3 7 8 0 6 -3 9 -7 8 -4 -1 -8 4 -8 12 0 8 4 13 8 12 4 -1 7 3
7 8 0 6 -3 9 -7 8 -4 -1 -8 4 -8 12 0 8 4 13 8 12 4 -1 7 3 7 8 0 6 -3 9 -7 8
-4 -1 -8 4 -8 12 0 8 4 13 8 12 4 -1 7 3 7 8 0 6 -3 9 -7 8 -4 -1 -8 4 -8 12
0 8 4 13 8 12 4 -1 7 3 7 8 0 6 -3 9 -7 8 -4 -1 -8 4 -8 12 0 8 4 13 8 12 4
-1 7 3 7 8 0 6 -3 9 -7 8 -4 -1 -8 4 -8 12 0 8 4 13 8 12 4 -1 7 3 7 8 0 6 -3
9 -7 8 -4 -1 -8 4 -8 12 0 8 4 13 8 12 4 -1 7 3 7 8 0 6 -3 9 -7 8 -4 -1 -8 4
-8 12 0 8 4 13 8 12 4 -1 7 3 7 8 0 6 -3 9 -7 8 -4 -1 -8 4 -8 12 0 8 4 13 8
12 4 -1 7 3 7 8 0 6 -3 9 -7 8 -4 -1 -8 4 -8 12 0 8 4 13 8 12 4 -1 7 3 7 8 0
6 -3 9 -7 8 -4 -1 -8 4 -8 12 0 8 4 13 8 12 4 -1 7 3 7 8 0 6 -3 9 -7 8 -4 -1
-8 4 -8 12 0 8 4 13 8 12 4 -1 7 3 7 8 0 6 -3 9 -7 8 -4 -1 -8 4 -8 12 0 8 4
13 8 12 4 -1 7 3 7 8 0 6 -3 9 -7 8 -4 -1 -8 4 -8 12 0 8 4 13 8 12 4 -1 7 3
7 8 0 6 -3 9 -7 8 -4 -1 -8 4 -8 12 0 8 4 13 8 12 4 -1 7 3 7 8 0 6 -3 9 -7 8
-4 -1 -8 4 -8 12 0 8 4 13 8 12 4 -1 7 3 7 8 0 6 -3 9 -7 8 -4 -1 -8 4 -8 12
0 8 4 13 8 12 4 -1 7 3 7 8 0 6 -3 9 -7 8 -4 -1 -8 4 -8 12 0 8 4 13 8 12 4
-1 6 3 6 8 -1 6 -5 9 -8 8 -3 -1 -6 4 -6 12 0 8 3 13 6 12 3 -1 6 3 6 8 0 6
-3 9 -6 8 -3 -1 -6 4 -6 12 0 8 3 13 6 12 3 -1 6 3 6 8 0 6 -3 9 -6 8 -3 -1
-6 4 -6 12 0 8 3 13 6 12 3 -1 6 3 6 8 0 6 -3 9 -6 8 -3 -1 -6 4 -6 12 0 8 3
13 6 12 3 -1 6 3 6 8 0 6 -3 9 -6 8 -3 -1 -6 4 -6 12 0 8 3 13 6 12 3 -1 6 3
6 8 0 6 -3 9 -6 8 -3 -1 -6 4 -6 12 0 8 3 13 6 12 3 -1 6 3 6 8 0 6 -3 9 -6 8
-3 -1 -6 4 -6 12 0 8 3 13 6 12 3 -1 6 3 6 8 0 6 -3 9 -6 8 -3 -1 -6 4 -6 12
0 8 3 13 6 12 3 -1 6 3 6 8 0 6 -3 9 -6 8 -3 -1 -6 4 -6 12 0 8 3 13 6 12 3
-1 6 3 6 8 0 6 -3 9 -6 8 -3 -1 -6 4 -6 12 0 8 3 13 6 12 3 -1 6 3 6 8 0 6 -3
9 -6 8 -3 -1 -6 4 -6 12 0 8 3 13 6 12 3 -1 6 3 6 8 0 6 -3 9 -6 8 -3 -1 -6 4
-6 12 0 8 3 13 6 12 3 -1 6 3 6 8 0 6 -3 9 -6 8 -3 -1 -6 4 -6 12 0 8 3 13 6
12 3 -1 6 3 6 8 0 6 -3 9 -6 8 -3 -1 -6 4 -6 12 0 8 3 13 6 12 3 -1 6 3 6 8 0
6 -3 9 -6 8 -3 -1 -6 4 -6 12 0 8 3 13 6 12 3 -1 6 3 6 8 0 6 -3 9 -6 8 -3 -1
-6 4 -6 12 0 8 3 13 6 12 3 -1 6 3 6 8 0 6 -3 9 -6 8 -3 -1 -6 4 -6 12 0 8 3
13 6 12 3 -1 6 3 6 8 0 6 -2 9 -5 8 -4 -1 -6 9 -6 22 0 13 2 23 6 22 3 -1 5 3
5 8 0 6 -3 9 -6 8 -3 -1 -6 4 -6 12 0 8 3 13 6 12 3 -1 6 3 6 8 0 6 -3 9 -6 8
-3 -1 -6 4 -6 12 0 8 3 13 6 12 3 -1 6 3 6 8 0 6 -3 9 -6 8 -3 -1 -6 4 -6 12
0 8 3 13 6 12 3 -1 6 3 6 8 0 6 -3 9 -6 8 -3 -1 -6 4 -6 12 0 8 3 13 6 12 3
-1 6 3 6 8 0 6 -3 9 -6 8 -3 -1 -6 4 -6 12 0 8 3 13 6 12 3 -1 6 3 6 8 0 6 -3
9 -6 8 -3 -1 -6 4 -6 12 0 8 3 13 6 12 3 -1 6 3 6 8 0 6 -3 9 -6 8 -3 -1 -6 4
-6 12 0 8 3 13 6 12 3 -1 6 3 6 8 0 6 -3 9 -6 8 -3 -1 -6 4 -6 12 0 8 3 13 6
12 3 -1 6 3 6 8 0 6 -3 9 -6 8 -3 -1 -6 4 -6 12 0 8 3 13 6 12 3 -1 6 3 6 8 0
6 -3 9 -6 8 -3 -1 -6 4 -6 12 0 8 3 13 6 12 3 -1 6 3 6 8 0 6 -3 9 -6 8 -3 -1
-6 4 -6 12 0 8 3 13 6 12 3 -1 6 3 6 8 0 6 -3 9 -6 8 -3 -1 -6 4 -6 12 0 8 3
13 6 12 3 -1 6 3 6 8 0 6 -3 9 -6 8 -3 -1 -6 4 -6 12 0 8 3 13 6 12 3 -1 6 3
6 8 0 6 -3 9 -6 8 -3 -1 -6 4 -6 12 0 8 3 13 6 12 3 -1 6 3 6 8 0 6 -3 9 -6 8
-3 -1 -6 4 -6 12 0 8 3 13 6 12 3 -1 6 3 6 8 0 6 -3 9 -6 8 -3 -1 -6 4 -6 12
0 8 3 13 6 12 3 -1 6 3 6 8 0 6 -3 9 -6 8 -3 -1 -6 4 -6 12 0 8 3 13 6 12 3
-1 6 3 6 8 0 6 -3 9 -6 8 -3 -1 -6 4 -6 12 0 8 3 13 6 12 3 -1 6 3 6 8 0 6 -3
9 -6 8 -3 -1 -6 4 -6 12 0 8 3 13 6 12 3 -1 6 3 6 8 0 6 -3 9 -6 8 -3 -1 -6 4
-6 12 0 8 3 13 6 12 3 -1 6 3 6 8 0 6 -3 9 -6 8 -3 -1 -6 4 -6 12 0 8 3 13 6
12 3 -1 6 3 6 8 0 6 -3 9 -6 8 -3 -1 -6 4 -6 12 0 8 3 13 6 12 3 -1 6 3 6 8 0
6 -3 9 -6 8 -3 -1 -6 4 -6 12 0 8 3 13 6 12 3 -1 6 3 6 8 0 6 -3 9 -6 8 -3 -1
-6 4 -6 12 0 8 3 13 6 12 3 -1 6 3 6 8 0 6 -3 9 -6 8 -3 -1 -6 4 -6 12 0 8 3
13 6 12 3 -1 6 3 6 8 0 6 -3 9 -6 8 -3 -1 -6 4 -6 12 0 8 3 13 6 12 3 -1 6 3
6 8 0 6 -3 9 -6 8 -3 -1 -6 4 -6 12 0 8 3 13 6 12 3 -1 6 3 6 8 0 6 -3 9 -6 8
-3 -1 -6 4 -6 12 0 8 3 13 6 12 3 -1 6 3 6 8 0 6 -3 9 -6 8 -3 -1 -6 4 -6 12
0 8 3 13 6 12 3 -1 6 3 6 8 0 6 -3 9 -6 8 -3 -1 -6 4 -6 12 0 8 3 13 6 12 3
-1 6 3 6 8 0 6 -3 9 -6 8 -3 -1 -6 4 -6 12 0 8 3 13 6 12 3 -1 6 3 6 8 0 6 -3
9 -6 8 -3 -1 -6 4 -6 12 0 8 3 13 6 12 3 -1 6 3 6 8 0 6 -3 9 -6 8 -3 -1 -6 4
-6 12 0 8 3 13 6 12 3 -1 6 3 6 8 0 6 -3 9 -6 8 -3 -1 -6 4 -6 12 0 8 3 13 6
12 3 -1 6 3 6 8 0 6 -3 9 -6 8 -3 -1 -6 4 -6 12 0 8 3 13 6 12 3 -1 6 3 6 8 0
6 -3 9 -6 8 -3 -1 -6 4 -6 12 0 8 3 13 6 12 3 -1 6 3 6 8 0 6 -3 9 -6 8 -3 -1
-6 4 -6 12 0 8 3 13 6 12 3 -1 6 3 6 8 0 6 -3 9 -6 8 -3 -1 -6 4 -6 12 0 8 3
13 6 12 3 -1 6 3 6 8 0 6 -3 9 -6 8 -3 -1 -6 4 -6 12 0 8 3 13 6 12 3 -1 6 3
6 8 0 6 -3 9 -6 8 -3 -1 -6 4 -6 12 0 8 3 13 6 12 3 -1 6 3 6 8 0 6 -3 9 -6 8
-3 -1 -6 4 -6 12 0 8 3 13 6 12 3 -1 6 3 6 8 0 6 -3 9 -6 8 -3 -1 -6 4 -6 12
0 8 3 13 6 12 3 -1 6 3 6 8 0 6 -3 9 -6 8 -3 -1 -6 4 -6 12 0 8 4 13 8 12 4
-1 7 3 7 8 0 6 -3 9 -7 8 -4 -1 -8 4 -8 12 0 8 4 13 8 12 4 -1 7 3 7 8 0 6 -3
9 -7 8 -4 -1 -8 4 -8 12 0 8 4 13 8 12 4 -1 7 3 7 8 0 6 -3 9 -7 8 -4 -1 -8 4
-8 12 0 8 4 13 8 12 4 -1 7 3 7 8 0 6 -3 9 -7 8 -4 -1 -8 4 -8 12 0 8 4 13 8
12 4 -1 7 3 7 8 0 6 -3 9 -7 8 -4 -1 -8 4 -8 12 0 8 4 13 8 12 4 -1 7 3 7 8 0
6 -3 9 -7 8 -4 -1 -8 4 -8 12 0 8 4 13 8 12 4 -1 7 3 7 8 0 6 -3 9 -7 8 -4 -1
-8 4 -8 12 0 8 4 13 8 12 4 -1 7 3 7 8 0 6 -3 9 -7 8 -4 -1 -8 4 -8 12 0 8 4
13 8 12 4 -1 7 3 7 8 0 6 -3 9 -7 8 -4 -1 -8 4 -8 12 0 8 4 13 8 12 4 -1 7 3
7 8 0 6 -3 9 -7 8 -4 -1 -8 4 -8 12 0 8 3 13 6 12 3 -1 6 3 6 8 0 6 -3 9 -6 8
-3 -1 -6 4 -6 12 0 8 3 13 6 12 3 -1 6 3 6 8 0 6 -3 9 -6 8 -3 -1 -6 4 -6 12
0 8 3 13 6 12 3 -1 6 3 6 8 0 6 -3 9 -6 8 -3 -1 -6 4 -6 12 0 8 3 13 6 12 3
-1 6 3 6 8 0 6 -3 9 -6 8 -3 -1 -6 4 -6 12 0 8 3 13 6 12 3 -1 6 3 6 8 0 6 -3
9 -6 8 -3 -1 -6 4 -6 12 0 8 4 13 8 12 4 -1 7 3 7 8 0 6 -3 9 -7 8 -4 -1 -8 4
-8 12 0 8 3 13 6 12 3 -1 6 3 6 8 0 6 -3 9 -6 8 -3 -1 -6 4 -6 12 0 8 3 13 6
12 3 -1 7 3 8 8 0 6 -2 9 -6 8 -4 -1 -8 4 -8 12 0 8 4 13 8 12 4 -1 7 3 7 8 0
6 -3 9 -7 8 -4 -1 -8 4 -8 12 0 8 3 13 6 12 3 -1 6 3 6 8 0 6 -4 9 -8 7 -5 -1
-6 2 -2 8 5 8 11 7 21 -1 8 -6 14 -8 14 -4z m-4395 -2260 c275 -690 501 -1251
502 -1247 2 4 100 558 218 1232 118 674 217 1235 220 1248 l5 22 598 0 c599 0
782 -7 1032 -36 886 -102 1289 -485 1231 -1169 -18 -205 -54 -353 -128 -515
-45 -98 -81 -155 -170 -267 -191 -241 -481 -417 -843 -511 -41 -11 -68 -23
-60 -26 8 -3 56 -20 105 -37 287 -100 495 -277 615 -523 78 -159 94 -242 94
-476 1 -271 -33 -441 -129 -646 -236 -508 -748 -824 -1398 -864 -84 -5 -531
-10 -994 -10 -743 0 -843 2 -843 15 0 8 52 309 115 668 63 358 115 658 115
665 0 9 -232 12 -1128 12 l-1127 0 -270 -665 c-148 -366 -272 -670 -275 -676
-4 -6 -114 -8 -288 -7 l-281 3 442 1065 c244 586 717 1725 1052 2533 l610
1467 240 0 241 0 499 -1255z m-670 -4547 c3 -7 23 -285 45 -618 22 -333 43
-625 46 -649 l6 -44 64 64 65 64 -48 5 -48 5 0 65 0 65 60 5 60 5 43 510 c24
281 45 516 47 523 3 9 56 12 220 12 166 0 215 -3 214 -12 0 -7 -75 -629 -167
-1383 l-167 -1370 -266 -3 -266 -2 -6 52 c-3 29 -18 259 -34 511 l-28 457 -57
0 -58 0 0 65 0 65 55 0 56 0 -7 37 c-4 23 -18 46 -37 62 -16 14 -35 39 -42 56
l-13 30 -6 -25 c-3 -14 -26 -297 -51 -630 -25 -333 -48 -622 -51 -642 l-6 -38
-273 0 -273 0 -6 38 c-3 20 -31 289 -61 597 -59 597 -58 588 -82 653 l-16 42
-89 0 -89 0 -24 -55 c-14 -30 -29 -55 -34 -55 -8 0 112 311 138 357 11 21 16
14 78 -142 29 -71 50 -114 48 -95 -3 19 -34 330 -70 690 -35 360 -67 672 -70
693 l-5 37 220 0 c213 0 220 -1 220 -20 0 -30 111 -1484 113 -1486 5 -5 128
292 127 309 0 10 -8 17 -20 17 -18 0 -20 7 -20 70 0 67 1 70 24 70 30 0 25
-39 72 565 19 253 37 466 39 473 3 9 55 12 215 12 159 0 212 -3 215 -12z
m1283 -509 l2 -516 88 -17 c87 -17 187 -57 243 -96 l29 -21 0 375 0 376 -155
0 -155 0 0 210 0 210 533 -2 532 -3 3 -207 2 -208 -160 0 -160 0 0 -315 0
-315 150 0 150 0 0 -70 0 -70 -96 0 -97 0 6 -132 c5 -144 14 -178 55 -222 36
-38 118 -76 165 -76 l38 0 -3 88 -3 87 -39 0 c-38 0 -39 -2 -59 -53 -11 -28
-25 -52 -32 -52 -8 0 16 71 61 183 l74 182 0 593 0 592 215 0 215 0 0 -525 0
-525 140 0 140 0 0 525 0 525 218 -2 217 -3 0 -1385 0 -1385 -215 0 -215 0 -3
593 -2 592 -130 0 c-118 0 -130 -2 -140 -19 -6 -13 -10 -216 -10 -590 l0 -571
-215 0 -215 0 0 500 0 500 -22 4 c-13 2 -52 9 -88 16 -84 15 -162 54 -217 107
l-43 42 0 -584 0 -585 -220 0 -220 0 0 565 c0 317 -4 565 -9 565 -5 0 -14 -6
-20 -14 -31 -37 -231 -105 -311 -106 l-25 0 3 -505 3 -505 -221 0 -220 0 0
543 0 544 -22 10 c-47 22 -118 95 -144 150 -66 134 -16 285 124 378 l42 28 0
559 0 558 218 -2 217 -3 3 -516z m-3107 -690 c96 -49 116 -195 38 -284 -36
-41 -80 -55 -171 -55 l-68 0 0 186 0 187 81 -7 c50 -4 96 -14 120 -27z m309
-160 c0 -113 -4 -179 -10 -179 -6 0 -10 69 -10 186 0 121 3 183 10 179 6 -4
10 -77 10 -186z"/>
<path d="M9341 10756 c-9 -10 -9 -16 -1 -21 8 -5 8 -10 0 -20 -8 -10 -8 -15 0
-20 8 -5 8 -10 0 -20 -8 -10 -8 -15 0 -20 8 -5 8 -10 0 -20 -8 -10 -8 -15 0
-20 8 -5 8 -10 0 -20 -8 -10 -8 -15 0 -20 8 -5 8 -10 0 -20 -8 -10 -8 -15 0
-20 8 -5 8 -10 0 -20 -8 -10 -8 -15 0 -20 8 -5 8 -10 0 -20 -8 -10 -8 -15 0
-20 8 -5 8 -10 0 -20 -8 -10 -8 -15 0 -20 8 -5 8 -10 0 -20 -8 -10 -8 -15 0
-20 8 -5 8 -10 0 -20 -8 -10 -8 -15 0 -20 8 -5 8 -10 0 -20 -8 -10 -8 -15 0
-20 8 -5 8 -10 0 -20 -8 -10 -8 -15 0 -20 8 -5 8 -10 0 -20 -8 -10 -8 -15 0
-20 8 -5 8 -10 0 -20 -8 -10 -8 -15 0 -20 8 -5 8 -10 0 -20 -8 -10 -8 -15 0
-20 8 -5 8 -10 0 -20 -8 -10 -8 -15 0 -20 8 -5 8 -10 0 -20 -8 -10 -8 -15 0
-20 8 -5 8 -10 0 -20 -8 -10 -8 -15 0 -20 8 -5 8 -10 0 -20 -8 -10 -8 -15 0
-20 8 -5 8 -10 0 -20 -8 -10 -8 -15 0 -20 8 -5 8 -10 0 -20 -8 -10 -8 -15 0
-20 8 -5 8 -10 0 -20 -8 -10 -8 -15 0 -20 8 -5 8 -10 0 -20 -8 -10 -8 -15 0
-20 8 -5 8 -10 0 -20 -8 -10 -8 -15 0 -20 8 -5 8 -10 0 -20 -8 -10 -8 -15 0
-20 8 -5 8 -10 0 -20 -8 -10 -8 -15 0 -20 8 -5 8 -10 0 -20 -8 -10 -8 -15 0
-20 8 -5 8 -10 0 -20 -8 -10 -8 -15 0 -20 8 -5 8 -10 0 -20 -8 -10 -8 -15 0
-20 8 -5 8 -10 0 -20 -8 -10 -8 -15 0 -20 8 -5 8 -10 0 -20 -8 -10 -8 -15 0
-20 8 -5 8 -10 0 -20 -8 -10 -8 -15 0 -20 8 -5 8 -10 0 -20 -8 -10 -8 -15 0
-20 8 -5 8 -10 0 -20 -8 -10 -8 -15 0 -20 8 -5 8 -10 0 -20 -8 -10 -8 -15 0
-20 8 -5 8 -10 0 -20 -8 -10 -8 -15 0 -20 8 -5 8 -10 0 -20 -8 -10 -8 -15 0
-20 8 -5 8 -10 0 -20 -8 -10 -8 -15 0 -20 8 -5 8 -10 0 -20 -8 -10 -8 -15 0
-20 8 -5 8 -10 0 -20 -8 -10 -8 -15 0 -20 8 -5 8 -10 0 -20 -8 -10 -8 -15 0
-20 8 -5 8 -10 0 -20 -8 -10 -8 -15 0 -20 8 -5 8 -10 0 -20 -8 -10 -8 -15 0
-20 8 -5 8 -10 0 -20 -8 -10 -8 -15 0 -20 8 -5 8 -10 0 -20 -8 -10 -8 -15 0
-20 8 -5 8 -10 0 -20 -8 -10 -8 -15 0 -20 8 -5 8 -10 0 -20 -8 -10 -8 -15 0
-20 8 -5 8 -10 0 -20 -8 -10 -8 -15 0 -20 8 -5 8 -10 0 -20 -8 -10 -8 -15 0
-20 8 -5 8 -10 0 -20 -8 -10 -8 -15 0 -20 8 -5 8 -10 0 -20 -8 -10 -8 -15 0
-20 8 -5 8 -10 0 -20 -8 -10 -8 -15 0 -20 8 -5 8 -10 0 -20 -8 -10 -8 -15 0
-20 8 -5 8 -10 0 -20 -8 -10 -8 -15 0 -20 8 -5 8 -10 0 -20 -8 -10 -8 -15 0
-20 8 -5 8 -10 0 -20 -8 -10 -8 -15 0 -20 8 -5 8 -10 0 -20 -8 -10 -8 -15 0
-20 8 -5 8 -10 0 -20 -8 -10 -8 -15 0 -20 8 -5 8 -10 0 -20 -8 -10 -8 -15 0
-20 8 -5 8 -10 0 -20 -8 -10 -8 -15 0 -20 8 -5 8 -10 0 -20 -8 -10 -8 -15 0
-20 8 -5 6 -12 -5 -25 -14 -15 -14 -18 0 -30 11 -9 12 -16 5 -25 -8 -9 -8 -15
0 -20 8 -5 8 -10 0 -20 -8 -10 -8 -15 0 -20 8 -5 8 -10 0 -20 -8 -10 -8 -15 0
-20 8 -5 8 -10 0 -20 -8 -10 -8 -15 0 -20 8 -5 8 -10 0 -20 -8 -10 -8 -15 0
-20 8 -5 8 -10 0 -20 -8 -10 -8 -15 0 -20 8 -5 8 -10 0 -20 -8 -10 -8 -15 0
-20 8 -5 8 -10 0 -20 -8 -10 -8 -15 0 -20 8 -5 8 -10 0 -20 -8 -10 -8 -15 0
-20 8 -5 8 -10 0 -20 -8 -10 -8 -15 0 -20 8 -5 8 -10 0 -20 -8 -10 -8 -15 0
-20 8 -5 8 -10 0 -20 -8 -10 -8 -15 0 -20 8 -5 8 -10 0 -20 -8 -10 -8 -15 0
-20 8 -5 8 -10 0 -20 -8 -10 -8 -15 0 -20 8 -5 8 -10 0 -20 -8 -10 -8 -15 0
-20 8 -5 8 -10 0 -20 -8 -10 -8 -15 0 -20 8 -5 8 -10 0 -20 -8 -10 -8 -15 0
-20 8 -5 8 -10 0 -20 -8 -10 -8 -15 0 -20 8 -5 8 -10 0 -20 -8 -10 -8 -15 0
-20 8 -5 8 -10 0 -20 -8 -10 -8 -15 0 -20 8 -5 8 -10 0 -20 -8 -10 -8 -15 0
-20 8 -5 8 -10 0 -20 -8 -10 -8 -15 0 -20 8 -5 8 -10 0 -20 -8 -10 -8 -15 0
-20 8 -5 8 -10 0 -20 -8 -10 -8 -15 0 -20 8 -5 8 -10 0 -20 -8 -10 -8 -15 0
-20 8 -5 8 -10 0 -20 -8 -10 -8 -15 0 -20 8 -5 8 -10 0 -20 -8 -10 -8 -15 0
-20 8 -5 8 -10 0 -20 -8 -10 -8 -15 0 -20 8 -5 8 -10 0 -20 -8 -10 -8 -15 0
-20 8 -5 8 -10 0 -20 -8 -10 -8 -15 0 -20 8 -5 8 -10 0 -20 -8 -10 -8 -15 0
-20 8 -5 8 -10 0 -20 -8 -10 -8 -15 0 -20 8 -5 8 -10 0 -20 -8 -10 -8 -15 0
-20 8 -5 8 -10 0 -20 -8 -10 -8 -15 0 -20 8 -5 8 -10 0 -20 -8 -10 -8 -15 0
-20 8 -5 8 -10 0 -20 -8 -10 -8 -15 0 -20 8 -5 8 -10 0 -20 -8 -10 -8 -15 0
-20 8 -5 8 -10 0 -20 -8 -10 -8 -15 0 -20 8 -5 8 -10 0 -20 -8 -10 -8 -15 0
-20 8 -5 8 -10 0 -20 -8 -10 -8 -15 0 -20 8 -5 8 -10 0 -20 -8 -10 -8 -15 0
-20 8 -5 8 -10 0 -20 -8 -10 -8 -15 0 -20 8 -5 8 -10 0 -20 -8 -10 -8 -15 0
-20 8 -5 8 -10 0 -20 -8 -10 -8 -15 0 -20 8 -5 8 -10 0 -20 -8 -10 -8 -15 0
-20 8 -5 8 -10 0 -20 -8 -10 -8 -15 0 -20 8 -5 8 -10 0 -20 -8 -10 -8 -15 0
-20 8 -5 8 -10 0 -20 -8 -10 -8 -15 0 -20 8 -5 8 -10 0 -20 -8 -10 -8 -15 0
-20 8 -5 8 -10 0 -20 -8 -10 -8 -15 0 -20 8 -5 8 -10 0 -20 -8 -10 -8 -15 0
-20 8 -5 8 -10 0 -20 -8 -10 -8 -15 0 -20 8 -5 8 -10 0 -20 -8 -10 -8 -15 0
-20 8 -5 8 -10 0 -20 -8 -10 -8 -15 0 -20 8 -5 8 -10 0 -20 -8 -10 -8 -15 0
-20 8 -5 8 -10 0 -20 -8 -10 -8 -15 0 -20 8 -5 8 -10 0 -20 -8 -10 -8 -15 0
-20 8 -5 8 -10 0 -20 -8 -10 -8 -15 0 -20 8 -5 8 -10 0 -20 -8 -10 -8 -15 0
-20 8 -5 8 -10 0 -20 -8 -10 -8 -15 0 -20 8 -5 8 -10 0 -20 -8 -10 -8 -15 0
-20 8 -5 8 -10 0 -20 -8 -10 -8 -15 0 -20 8 -5 6 -12 -5 -25 -14 -15 -14 -18
0 -30 11 -9 12 -16 5 -25 -8 -9 -8 -15 0 -20 8 -5 8 -10 0 -20 -8 -10 -8 -15
0 -20 8 -5 8 -10 0 -20 -8 -10 -8 -15 0 -20 8 -5 8 -10 0 -20 -8 -10 -8 -15 0
-20 8 -5 8 -10 0 -20 -8 -10 -8 -15 0 -20 8 -5 8 -10 0 -20 -8 -10 -8 -15 0
-20 8 -5 8 -10 0 -20 -8 -10 -8 -15 0 -20 8 -5 8 -10 0 -20 -8 -10 -8 -15 0
-20 8 -5 8 -10 0 -20 -8 -10 -8 -15 0 -20 8 -5 8 -10 0 -20 -8 -10 -8 -15 0
-20 8 -5 8 -10 0 -20 -8 -10 -8 -15 0 -20 8 -5 8 -10 0 -20 -8 -10 -8 -15 0
-20 8 -5 8 -10 0 -20 -8 -10 -8 -15 0 -20 8 -5 8 -10 0 -20 -8 -10 -8 -15 0
-20 8 -5 8 -10 0 -20 -8 -10 -8 -15 0 -20 8 -5 8 -10 0 -20 -8 -10 -8 -15 0
-20 8 -5 8 -10 0 -20 -8 -10 -8 -15 0 -20 8 -5 8 -10 0 -20 -8 -10 -8 -15 0
-20 8 -5 8 -10 0 -20 -8 -10 -8 -15 0 -20 8 -5 8 -10 0 -20 -8 -10 -8 -15 0
-20 8 -5 8 -10 0 -20 -8 -10 -8 -15 0 -20 8 -5 8 -10 0 -20 -8 -10 -8 -15 0
-20 8 -5 8 -10 0 -20 -8 -10 -8 -15 0 -20 8 -5 8 -10 0 -20 -8 -10 -8 -15 0
-20 8 -5 8 -10 0 -20 -8 -10 -8 -15 0 -20 8 -5 8 -10 0 -20 -8 -10 -8 -15 0
-20 8 -5 8 -10 0 -20 -8 -10 -8 -15 0 -20 8 -5 8 -10 0 -20 -8 -10 -8 -15 0
-20 8 -5 8 -10 0 -20 -8 -10 -8 -15 0 -20 8 -5 8 -10 0 -20 -8 -10 -8 -15 0
-20 8 -5 8 -10 0 -20 -8 -10 -8 -15 0 -20 8 -5 8 -10 0 -20 -8 -10 -8 -15 0
-20 8 -5 8 -10 0 -20 -8 -10 -8 -15 0 -20 8 -5 8 -10 0 -20 -8 -10 -8 -15 0
-20 8 -5 8 -10 0 -20 -8 -10 -8 -15 0 -20 8 -5 8 -10 0 -20 -8 -10 -8 -15 0
-20 8 -5 8 -10 0 -20 -8 -10 -8 -15 0 -20 8 -5 8 -10 0 -20 -8 -10 -8 -15 0
-20 8 -5 8 -10 0 -20 -8 -10 -8 -15 0 -20 8 -5 8 -10 0 -20 -8 -10 -8 -15 0
-20 8 -5 8 -10 0 -20 -8 -10 -8 -15 0 -20 8 -5 8 -10 0 -20 -8 -10 -8 -15 0
-20 8 -5 8 -10 0 -20 -8 -10 -8 -15 0 -20 8 -5 8 -10 0 -20 -8 -10 -8 -15 0
-20 8 -5 8 -10 0 -20 -8 -10 -8 -15 0 -20 8 -5 8 -10 0 -20 -8 -10 -8 -15 0
-20 8 -5 8 -10 0 -20 -8 -10 -8 -15 0 -20 8 -5 8 -10 0 -20 -8 -10 -8 -15 0
-20 8 -5 8 -10 0 -20 -8 -10 -8 -15 0 -20 8 -5 8 -10 0 -20 -8 -10 -8 -15 0
-20 8 -5 8 -10 0 -20 -8 -10 -8 -15 0 -20 8 -5 8 -10 0 -20 -8 -10 -8 -15 0
-20 8 -5 8 -10 0 -20 -8 -10 -8 -15 0 -20 8 -5 8 -10 0 -20 -8 -10 -8 -15 0
-20 8 -5 8 -10 0 -20 -8 -10 -8 -15 0 -20 8 -5 8 -10 0 -20 -8 -10 -8 -15 0
-20 8 -5 8 -10 0 -20 -8 -10 -8 -15 0 -20 8 -5 8 -10 0 -20 -8 -10 -8 -15 0
-20 8 -5 8 -10 0 -20 -8 -10 -8 -15 0 -20 8 -5 8 -10 0 -20 -8 -10 -8 -15 0
-20 8 -5 8 -10 0 -20 -8 -10 -8 -15 0 -20 8 -5 8 -10 0 -20 -8 -10 -8 -15 0
-20 8 -5 6 -12 -5 -25 -14 -15 -14 -18 0 -30 11 -9 12 -16 5 -25 -8 -9 -8 -15
0 -20 8 -5 8 -10 0 -20 -8 -10 -8 -15 0 -20 8 -5 8 -10 0 -20 -8 -10 -8 -15 0
-20 8 -5 8 -10 0 -20 -8 -10 -8 -15 0 -20 8 -5 8 -10 0 -20 -8 -10 -8 -15 0
-20 8 -5 8 -10 0 -20 -8 -10 -8 -15 0 -20 8 -5 8 -10 0 -20 -8 -10 -8 -15 0
-20 8 -5 8 -10 0 -20 -8 -10 -8 -15 0 -20 8 -5 8 -10 0 -20 -8 -10 -8 -15 0
-20 8 -5 8 -10 0 -20 -8 -10 -8 -15 0 -20 8 -5 8 -10 0 -20 -8 -10 -8 -15 0
-20 8 -5 8 -10 0 -20 -8 -10 -8 -15 0 -20 8 -5 8 -10 0 -20 -8 -10 -8 -15 0
-20 8 -5 8 -10 0 -20 -8 -10 -8 -15 0 -20 8 -5 8 -10 0 -20 -8 -10 -8 -15 0
-20 8 -5 8 -10 0 -20 -8 -10 -8 -15 0 -20 8 -5 8 -10 0 -20 -8 -10 -8 -15 0
-20 8 -5 8 -10 0 -20 -8 -10 -8 -15 0 -20 8 -5 8 -10 0 -20 -8 -10 -8 -15 0
-20 8 -5 8 -10 0 -20 -8 -10 -8 -15 0 -20 8 -5 8 -10 0 -20 -8 -10 -8 -15 0
-20 8 -5 8 -10 0 -20 -8 -10 -8 -15 0 -20 8 -5 8 -10 0 -20 -8 -10 -8 -15 0
-20 8 -5 8 -10 0 -20 -8 -10 -8 -15 0 -20 8 -5 8 -10 0 -20 -8 -10 -8 -15 0
-20 8 -5 8 -10 0 -20 -8 -10 -8 -15 0 -20 8 -5 8 -10 0 -20 -8 -10 -8 -15 0
-20 8 -5 8 -10 0 -20 -8 -10 -8 -15 0 -20 8 -5 8 -10 0 -20 -8 -10 -8 -15 0
-20 8 -5 8 -10 0 -20 -8 -10 -8 -15 0 -20 8 -5 8 -10 0 -20 -8 -10 -8 -15 0
-20 8 -5 8 -10 0 -20 -8 -10 -8 -15 0 -20 8 -5 8 -10 0 -20 -8 -10 -8 -15 0
-20 8 -5 8 -10 0 -20 -8 -10 -8 -15 0 -20 8 -5 8 -10 0 -20 -8 -10 -8 -15 0
-20 8 -5 8 -10 0 -20 -8 -10 -8 -15 0 -20 8 -5 8 -10 0 -20 -8 -10 -8 -15 0
-20 8 -5 8 -10 0 -20 -8 -10 -8 -15 0 -20 8 -5 8 -10 0 -20 -8 -10 -8 -15 0
-20 8 -5 8 -10 0 -20 -8 -10 -8 -15 0 -20 8 -5 8 -10 0 -20 -8 -10 -8 -15 0
-20 8 -5 8 -10 0 -20 -8 -10 -8 -15 0 -20 8 -5 8 -10 0 -20 -8 -10 -8 -15 0
-20 8 -5 8 -10 0 -20 -8 -10 -8 -15 0 -20 8 -5 8 -10 0 -20 -8 -10 -8 -15 0
-20 8 -5 8 -10 0 -20 -8 -10 -8 -15 0 -20 8 -5 8 -10 0 -20 -8 -10 -8 -15 0
-20 8 -5 8 -10 0 -20 -8 -10 -8 -15 0 -20 8 -5 8 -10 0 -20 -8 -10 -8 -15 0
-20 8 -5 8 -10 0 -20 -8 -10 -8 -15 0 -20 8 -5 8 -10 0 -20 -8 -10 -8 -15 0
-20 8 -5 8 -10 0 -20 -8 -10 -8 -15 0 -20 8 -5 8 -10 0 -20 -8 -10 -8 -15 0
-20 8 -5 8 -10 0 -20 -8 -10 -8 -15 0 -20 8 -5 8 -10 0 -20 -8 -10 -8 -15 0
-20 8 -5 8 -10 0 -20 -8 -10 -8 -15 0 -20 8 -5 8 -10 0 -20 -8 -10 -8 -15 0
-20 8 -5 8 -10 0 -20 -8 -10 -8 -15 0 -20 8 -5 8 -10 0 -20 -8 -10 -8 -15 0
-20 8 -5 8 -10 0 -20 -8 -10 -8 -15 0 -20 8 -5 8 -10 0 -20 -8 -10 -8 -15 0
-20 8 -5 8 -10 0 -20 -8 -10 -8 -15 0 -20 8 -5 6 -12 -5 -25 -14 -15 -14 -18
0 -30 11 -9 12 -16 5 -25 -8 -9 -8 -15 0 -20 8 -5 8 -10 0 -20 -8 -10 -8 -15
0 -20 8 -5 8 -10 0 -20 -8 -10 -8 -15 0 -20 8 -5 8 -10 0 -20 -8 -10 -8 -15 0
-20 8 -5 8 -10 0 -20 -8 -10 -8 -15 0 -20 8 -5 8 -10 0 -20 -8 -10 -8 -15 0
-20 8 -5 8 -10 0 -20 -8 -10 -8 -15 0 -20 8 -5 8 -10 0 -20 -8 -10 -8 -15 0
-20 8 -5 8 -10 0 -20 -8 -10 -8 -15 0 -20 8 -5 8 -10 0 -20 -8 -10 -8 -15 0
-20 8 -5 8 -10 0 -20 -8 -10 -8 -15 0 -20 8 -5 8 -10 0 -20 -8 -10 -8 -15 0
-20 8 -5 8 -10 0 -20 -8 -10 -8 -15 0 -20 8 -5 8 -11 1 -19 -8 -10 -5 -18 10
-31 22 -21 46 -27 54 -15 5 8 -13 25 -27 25 -5 0 -8 5 -8 10 0 6 3 10 8 10 35
1 37 60 1 60 -11 0 -12 20 -1 20 35 1 37 60 1 60 -11 0 -12 20 -1 20 35 1 37
60 1 60 -11 0 -12 20 -1 20 35 1 37 60 1 60 -11 0 -12 20 -1 20 35 1 37 60 1
60 -5 0 -9 5 -9 10 0 6 4 10 9 10 27 0 36 39 14 57 -9 7 -18 12 -20 11 -1 -2
-3 -1 -3 2 0 3 3 5 8 6 14 1 30 20 28 32 -3 20 -17 38 -26 32 -9 -6 -23 12
-26 32 -1 7 2 15 6 18 5 3 7 -3 5 -13 -2 -11 3 -19 11 -19 8 0 12 3 9 5 -3 3
0 11 6 19 11 13 10 14 -11 17 -13 1 -13 21 -1 21 27 0 36 39 14 57 -9 7 -18
12 -20 11 -1 -2 -3 0 -3 5 0 4 4 7 9 7 35 0 34 60 -1 64 -11 1 -10 16 1 16 27
0 36 39 14 57 -9 7 -18 12 -20 11 -1 -2 -3 0 -3 5 0 4 4 7 9 7 35 0 34 60 -1
64 -11 1 -10 16 1 16 35 0 34 60 -1 64 -11 1 -10 16 1 16 27 0 36 39 14 57 -9
7 -18 12 -20 11 -1 -2 -3 0 -3 5 0 4 4 7 9 7 27 0 36 39 14 57 -9 7 -18 12
-20 11 -1 -2 -3 0 -3 5 0 4 4 7 9 7 27 0 36 39 14 57 -9 7 -18 12 -20 11 -1
-2 -3 0 -3 5 0 4 4 7 9 7 27 0 36 39 14 57 -9 7 -18 12 -20 11 -1 -2 -3 0 -3
5 0 4 4 7 9 7 27 0 36 39 14 57 -9 7 -18 12 -20 11 -1 -2 -3 0 -3 5 0 4 4 7 9
7 27 0 36 39 14 57 -9 7 -18 12 -20 11 -1 -2 -3 0 -3 5 0 4 4 7 9 7 27 0 36
39 14 57 -9 7 -18 12 -20 11 -1 -2 -3 -1 -3 2 0 3 2 4 3 3 2 -2 11 3 20 10 22
18 13 57 -14 57 -5 0 -9 5 -9 10 0 6 4 10 9 10 27 0 36 39 14 57 -9 7 -18 12
-20 11 -1 -2 -3 0 -3 5 0 4 4 7 9 7 27 0 36 39 14 57 -9 7 -18 12 -20 11 -1
-2 -3 0 -3 5 0 4 4 7 9 7 35 0 34 60 -1 64 -11 1 -10 16 1 16 35 0 34 60 -1
64 -11 1 -10 16 1 16 27 0 36 39 14 57 -9 7 -18 12 -20 11 -1 -2 -3 0 -3 5 0
4 4 7 9 7 35 0 34 60 -1 64 -11 1 -10 16 1 16 27 0 36 39 14 57 -9 7 -18 12
-20 11 -1 -2 -3 0 -3 5 0 4 4 7 9 7 35 0 34 60 -1 64 -11 1 -10 16 1 16 35 0
34 60 -1 64 -11 1 -10 16 1 16 27 0 36 39 14 57 -9 7 -18 12 -20 11 -1 -2 -3
0 -3 5 0 4 4 7 9 7 27 0 36 39 14 57 -9 7 -18 12 -20 11 -1 -2 -3 0 -3 5 0 4
4 7 9 7 27 0 36 39 14 57 -9 7 -18 12 -20 11 -1 -2 -3 0 -3 5 0 4 4 7 9 7 27
0 36 39 14 57 -9 7 -18 12 -20 11 -1 -2 -3 0 -3 5 0 4 4 7 9 7 27 0 36 39 14
57 -9 7 -18 12 -20 11 -1 -2 -3 0 -3 5 0 4 4 7 9 7 35 0 34 60 -1 64 -11 1
-10 16 1 16 27 0 36 39 14 57 -9 7 -18 12 -20 11 -1 -2 -3 0 -3 5 0 4 4 7 9 7
27 0 36 39 14 57 -9 7 -18 12 -20 11 -1 -2 -3 -1 -3 2 0 3 3 5 8 6 14 1 30 20
28 32 -3 20 -17 38 -26 32 -9 -6 -23 12 -26 32 -1 7 2 15 6 18 5 3 7 -3 5 -13
-2 -11 3 -19 11 -19 8 0 12 3 9 5 -3 3 0 11 6 19 11 13 10 14 -11 17 -13 1
-13 21 -1 21 27 0 36 39 14 57 -9 7 -18 12 -20 11 -1 -2 -3 0 -3 5 0 4 4 7 9
7 35 0 34 60 -1 64 -11 1 -10 16 1 16 27 0 36 39 14 57 -9 7 -18 12 -20 11 -1
-2 -3 -1 -3 2 0 3 3 5 8 6 35 4 36 64 1 64 -11 0 -12 20 -1 20 35 1 37 60 1
60 -11 0 -12 20 -1 20 35 1 37 60 1 60 -11 0 -12 20 -1 20 35 1 37 60 1 60
-11 0 -12 20 -1 20 35 1 37 60 1 60 -11 0 -12 20 -1 20 35 1 37 60 1 60 -11 0
-12 20 -1 20 35 1 37 60 1 60 -11 0 -12 20 -1 20 35 1 37 60 1 60 -11 0 -12
20 -1 20 35 1 37 60 1 60 -11 0 -12 20 -1 20 35 1 37 60 1 60 -11 0 -12 20 -1
20 35 1 37 60 1 60 -11 0 -12 20 -1 20 35 1 37 60 1 60 -11 0 -12 20 -1 20 35
1 37 60 1 60 -11 0 -12 20 -1 20 35 1 37 60 1 60 -11 0 -12 20 -1 20 35 1 37
60 1 60 -11 0 -12 20 -1 20 35 1 37 60 1 60 -11 0 -12 20 -1 20 35 1 37 60 1
60 -11 0 -12 20 -1 20 35 1 37 60 1 60 -11 0 -12 20 -1 20 35 1 37 60 1 60
-11 0 -12 20 -1 20 35 1 37 60 1 60 -11 0 -12 20 -1 20 35 1 37 60 1 60 -11 0
-12 20 -1 20 35 1 37 60 1 60 -11 0 -12 20 -1 20 35 1 37 60 1 60 -11 0 -12
20 -1 20 35 1 37 60 1 60 -11 0 -12 20 -1 20 35 1 37 60 1 60 -11 0 -12 20 -1
20 35 1 37 60 1 60 -11 0 -12 20 -1 20 35 1 37 60 1 60 -11 0 -12 20 -1 20 14
0 30 15 28 28 -3 20 -17 38 -26 32 -9 -6 -23 12 -26 32 -1 7 2 15 6 18 5 3 7
-3 5 -13 -2 -11 3 -19 11 -19 8 0 12 3 9 5 -3 3 0 11 6 19 11 13 10 14 -11 17
-13 1 -13 21 -1 21 35 0 34 60 -1 64 -11 1 -10 16 1 16 27 0 36 39 14 57 -9 7
-18 12 -20 11 -1 -2 -3 0 -3 5 0 4 4 7 9 7 27 0 36 39 14 57 -9 7 -18 12 -20
11 -1 -2 -3 0 -3 5 0 4 4 7 9 7 35 0 34 60 -1 64 -11 1 -10 16 1 16 27 0 36
39 14 57 -9 7 -18 12 -20 11 -1 -2 -3 0 -3 5 0 4 4 7 9 7 35 0 34 60 -1 64
-11 1 -10 16 1 16 27 0 36 39 14 57 -9 7 -18 12 -20 11 -1 -2 -3 0 -3 5 0 4 4
7 9 7 35 0 34 60 -1 64 -11 1 -10 16 1 16 27 0 36 39 14 57 -9 7 -18 12 -20
11 -1 -2 -3 0 -3 5 0 4 4 7 9 7 27 0 36 39 14 57 -9 7 -18 12 -20 11 -1 -2 -3
0 -3 5 0 4 4 7 9 7 27 0 36 39 14 57 -9 7 -18 12 -20 11 -1 -2 -3 0 -3 5 0 4
4 7 9 7 35 0 34 60 -1 64 -11 1 -10 16 1 16 27 0 36 39 14 57 -9 7 -18 12 -20
11 -1 -2 -3 0 -3 5 0 4 4 7 9 7 27 0 36 39 14 57 -9 7 -18 12 -20 11 -1 -2 -3
0 -3 5 0 4 4 7 9 7 27 0 36 39 14 57 -9 7 -18 12 -20 11 -1 -2 -3 0 -3 5 0 4
4 7 9 7 35 0 34 60 -1 64 -11 1 -10 16 1 16 27 0 36 39 14 57 -9 7 -18 12 -20
11 -1 -2 -3 -1 -3 2 0 3 3 5 8 6 35 4 36 64 1 64 -11 0 -12 20 -1 20 35 1 37
60 1 60 -11 0 -12 20 -1 20 35 1 37 60 1 60 -11 0 -12 20 -1 20 35 1 37 60 1
60 -11 0 -12 20 -1 20 35 1 37 60 1 60 -11 0 -12 20 -1 20 35 1 37 60 1 60
-11 0 -12 20 -1 20 35 1 37 60 1 60 -11 0 -12 20 -1 20 35 1 37 60 1 60 -11 0
-12 20 -1 20 35 1 37 60 1 60 -11 0 -12 20 -1 20 35 1 37 60 1 60 -11 0 -12
20 -1 20 35 1 37 60 1 60 -11 0 -12 20 -1 20 35 1 37 60 1 60 -11 0 -12 20 -1
20 35 1 37 60 1 60 -11 0 -12 20 -1 20 14 0 30 15 28 28 -3 20 -17 38 -26 32
-9 -6 -23 12 -26 32 -1 7 2 15 6 18 5 3 7 -3 5 -13 -2 -11 3 -19 11 -19 8 0
12 3 9 5 -3 3 0 11 6 19 11 13 10 14 -11 17 -13 1 -13 21 -1 21 27 0 36 39 14
57 -9 7 -18 12 -20 11 -1 -2 -3 0 -3 5 0 4 4 7 9 7 27 0 36 39 14 57 -9 7 -18
12 -20 11 -1 -2 -3 -1 -3 2 0 3 3 5 8 6 35 4 36 64 1 64 -5 0 -9 5 -9 10 0 6
4 10 9 10 27 0 36 39 14 57 -9 7 -18 12 -20 11 -1 -2 -3 0 -3 5 0 4 4 7 9 7
27 0 36 39 14 57 -9 7 -18 12 -20 11 -1 -2 -3 0 -3 5 0 4 4 7 9 7 35 0 34 60
-1 64 -11 1 -10 16 1 16 27 0 36 39 14 57 -9 7 -18 12 -20 11 -1 -2 -3 0 -3 5
0 4 4 7 9 7 35 0 34 60 -1 64 -5 1 -8 4 -8 9 0 4 3 7 8 7 35 1 37 60 1 60 -11
0 -12 20 -1 20 35 1 37 60 1 60 -11 0 -12 20 -1 20 35 1 37 60 1 60 -11 0 -12
20 -1 20 35 1 37 60 1 60 -11 0 -12 20 -1 20 35 1 37 60 1 60 -11 0 -12 20 -1
20 35 1 37 60 1 60 -5 0 -9 5 -9 10 0 6 4 10 9 10 35 0 34 60 -1 64 -11 1 -10
16 1 16 27 0 36 39 14 57 -9 7 -18 12 -20 11 -1 -2 -3 0 -3 5 0 4 4 7 9 7 27
0 36 39 14 57 -9 7 -18 12 -20 11 -1 -2 -3 0 -3 5 0 4 4 7 9 7 27 0 36 39 14
57 -9 7 -18 12 -20 11 -1 -2 -3 0 -3 5 0 4 4 7 9 7 35 0 34 60 -1 64 -5 1 -8
3 -8 6 0 3 3 5 8 6 35 4 36 64 1 64 -11 0 -12 20 -1 20 35 1 37 60 1 60 -11 0
-12 20 -1 20 35 1 37 60 1 60 -5 0 -9 5 -9 10 0 6 4 10 9 10 35 0 34 60 -1 64
-5 1 -8 3 -8 6 0 3 2 4 3 3 2 -2 11 3 20 10 22 18 13 57 -14 57 -5 0 -9 5 -9
10 0 6 4 10 9 10 27 0 36 39 14 57 -9 7 -18 12 -20 11 -1 -2 -3 0 -3 5 0 4 3
7 8 7 35 1 37 60 1 60 -5 0 -9 5 -9 10 0 6 4 10 9 10 27 0 36 39 14 57 -9 7
-18 12 -20 11 -1 -2 -3 0 -3 5 0 4 4 7 9 7 27 0 36 39 14 57 -9 7 -18 12 -20
11 -1 -2 -3 0 -3 5 0 4 4 7 9 7 27 0 36 39 14 57 -9 7 -18 12 -20 11 -1 -2 -3
0 -3 5 0 4 4 7 9 7 35 0 34 60 -1 64 -5 1 -8 4 -8 9 0 4 3 7 8 7 4 0 12 4 19
8 9 6 10 14 4 46 -1 2 -7 -1 -14 -8 -9 -7 -17 -7 -24 0 -7 7 -14 5 -22 -5z
m45 -5 c9 7 12 6 10 -6 -1 -8 -5 -14 -8 -13 -3 2 -11 -2 -19 -9 -13 -10 -15
-8 -15 12 0 16 3 22 10 15 6 -6 14 -6 22 1z m-1 -66 c6 0 10 -8 10 -17 0 -10
-3 -17 -6 -15 -3 1 -12 -3 -20 -10 -12 -10 -15 -6 -15 22 0 21 4 31 11 27 5
-4 15 -7 20 -7z m0 -80 c6 0 10 -8 10 -17 0 -10 -3 -17 -6 -15 -3 1 -12 -3
-20 -10 -12 -10 -15 -6 -15 22 0 21 4 31 11 27 5 -4 15 -7 20 -7z m0 -80 c6 0
10 -8 10 -17 0 -10 -3 -17 -6 -15 -3 1 -12 -3 -20 -10 -12 -10 -15 -6 -15 22
0 21 4 31 11 27 5 -4 15 -7 20 -7z m0 -80 c6 0 10 -8 10 -17 0 -10 -3 -17 -6
-15 -3 1 -12 -3 -20 -10 -12 -10 -15 -6 -15 22 0 21 4 31 11 27 5 -4 15 -7 20
-7z m0 -80 c6 0 10 -8 10 -17 0 -10 -3 -17 -6 -15 -3 1 -12 -3 -20 -10 -12
-10 -15 -6 -15 22 0 21 4 31 11 27 5 -4 15 -7 20 -7z m0 -80 c6 0 10 -8 10
-17 0 -10 -3 -17 -6 -15 -3 1 -12 -3 -20 -10 -12 -10 -15 -6 -15 22 0 21 4 31
11 27 5 -4 15 -7 20 -7z m0 -80 c6 0 10 -8 10 -17 0 -10 -3 -17 -6 -15 -3 1
-12 -3 -20 -10 -12 -10 -15 -6 -15 22 0 21 4 31 11 27 5 -4 15 -7 20 -7z m0
-80 c6 0 10 -8 10 -17 0 -10 -3 -17 -6 -15 -3 1 -12 -3 -20 -10 -12 -10 -15
-6 -15 22 0 21 4 31 11 27 5 -4 15 -7 20 -7z m0 -80 c6 0 10 -8 10 -17 0 -10
-3 -17 -6 -15 -3 1 -12 -3 -20 -10 -12 -10 -15 -6 -15 22 0 21 4 31 11 27 5
-4 15 -7 20 -7z m0 -80 c6 0 10 -8 10 -17 0 -10 -3 -17 -6 -15 -3 1 -12 -3
-20 -10 -12 -10 -15 -6 -15 22 0 21 4 31 11 27 5 -4 15 -7 20 -7z m0 -80 c6 0
10 -8 10 -17 0 -10 -3 -17 -6 -15 -3 1 -12 -3 -20 -10 -12 -10 -15 -6 -15 22
0 21 4 31 11 27 5 -4 15 -7 20 -7z m0 -80 c6 0 10 -8 10 -17 0 -10 -3 -17 -6
-15 -3 1 -12 -3 -20 -10 -12 -10 -15 -6 -15 22 0 21 4 31 11 27 5 -4 15 -7 20
-7z m0 -80 c6 0 10 -8 10 -17 0 -10 -3 -17 -6 -15 -3 1 -12 -3 -20 -10 -12
-10 -15 -6 -15 22 0 21 4 31 11 27 5 -4 15 -7 20 -7z m0 -80 c6 0 10 -8 10
-17 0 -10 -3 -17 -6 -15 -3 1 -12 -3 -20 -10 -12 -10 -15 -6 -15 22 0 21 4 31
11 27 5 -4 15 -7 20 -7z m0 -80 c6 0 10 -8 10 -17 0 -10 -3 -17 -6 -15 -3 1
-12 -3 -20 -10 -12 -10 -15 -6 -15 22 0 21 4 31 11 27 5 -4 15 -7 20 -7z m0
-80 c6 0 10 -8 10 -17 0 -10 -3 -17 -6 -15 -3 1 -12 -3 -20 -10 -12 -10 -15
-6 -15 22 0 21 4 31 11 27 5 -4 15 -7 20 -7z m0 -80 c6 0 10 -8 10 -17 0 -10
-3 -17 -6 -15 -3 1 -12 -3 -20 -10 -12 -10 -15 -6 -15 22 0 21 4 31 11 27 5
-4 15 -7 20 -7z m0 -80 c6 0 10 -8 10 -17 0 -10 -3 -17 -6 -15 -3 1 -12 -3
-20 -10 -12 -10 -15 -6 -15 22 0 21 4 31 11 27 5 -4 15 -7 20 -7z m0 -80 c6 0
10 -8 10 -17 0 -10 -3 -17 -6 -15 -3 1 -12 -3 -20 -10 -12 -10 -15 -6 -15 22
0 21 4 31 11 27 5 -4 15 -7 20 -7z m0 -80 c6 0 10 -8 10 -17 0 -10 -3 -17 -6
-15 -3 1 -12 -3 -20 -10 -12 -10 -15 -6 -15 22 0 21 4 31 11 27 5 -4 15 -7 20
-7z m0 -80 c6 0 10 -8 10 -17 0 -10 -3 -17 -6 -15 -3 1 -12 -3 -20 -10 -12
-10 -15 -6 -15 22 0 21 4 31 11 27 5 -4 15 -7 20 -7z m0 -80 c6 0 10 -8 10
-17 0 -10 -3 -17 -6 -15 -3 1 -12 -3 -20 -10 -12 -10 -15 -6 -15 22 0 21 4 31
11 27 5 -4 15 -7 20 -7z m0 -80 c6 0 10 -8 10 -17 0 -10 -3 -17 -6 -15 -3 1
-12 -3 -20 -10 -12 -10 -15 -6 -15 22 0 21 4 31 11 27 5 -4 15 -7 20 -7z m0
-80 c6 0 10 -8 10 -17 0 -10 -3 -17 -6 -15 -3 1 -12 -3 -20 -10 -12 -10 -15
-6 -15 22 0 21 4 31 11 27 5 -4 15 -7 20 -7z m0 -80 c6 0 10 -8 10 -17 0 -10
-3 -17 -6 -15 -3 1 -12 -3 -20 -10 -12 -10 -15 -6 -15 22 0 21 4 31 11 27 5
-4 15 -7 20 -7z m0 -80 c6 0 10 -8 10 -17 0 -10 -3 -17 -6 -15 -3 1 -12 -3
-20 -10 -12 -10 -15 -6 -15 22 0 21 4 31 11 27 5 -4 15 -7 20 -7z m0 -80 c6 0
10 -8 10 -17 0 -10 -3 -17 -6 -15 -3 1 -12 -3 -20 -10 -12 -10 -15 -6 -15 22
0 21 4 31 11 27 5 -4 15 -7 20 -7z m0 -80 c6 0 10 -8 10 -17 0 -10 -3 -17 -6
-15 -3 1 -12 -3 -20 -10 -12 -10 -15 -6 -15 22 0 21 4 31 11 27 5 -4 15 -7 20
-7z m0 -80 c6 0 10 -8 10 -17 0 -10 -3 -17 -6 -15 -3 1 -12 -3 -20 -10 -12
-10 -15 -6 -15 22 0 21 4 31 11 27 5 -4 15 -7 20 -7z m0 -80 c6 0 10 -8 10
-17 0 -10 -3 -17 -6 -15 -3 1 -12 -3 -20 -10 -12 -10 -15 -6 -15 22 0 21 4 31
11 27 5 -4 15 -7 20 -7z m0 -140 c6 0 10 -8 10 -17 0 -10 -3 -17 -6 -15 -3 1
-12 -3 -20 -10 -12 -10 -15 -6 -15 22 0 21 4 31 11 27 5 -4 15 -7 20 -7z m0
-80 c6 0 10 -8 10 -17 0 -10 -3 -17 -6 -15 -3 1 -12 -3 -20 -10 -12 -10 -15
-6 -15 22 0 21 4 31 11 27 5 -4 15 -7 20 -7z m0 -80 c6 0 10 -8 10 -17 0 -10
-3 -17 -6 -15 -3 1 -12 -3 -20 -10 -12 -10 -15 -6 -15 22 0 21 4 31 11 27 5
-4 15 -7 20 -7z m0 -80 c6 0 10 -8 10 -17 0 -10 -3 -17 -6 -15 -3 1 -12 -3
-20 -10 -12 -10 -15 -6 -15 22 0 21 4 31 11 27 5 -4 15 -7 20 -7z m0 -80 c6 0
10 -8 10 -17 0 -10 -3 -17 -6 -15 -3 1 -12 -3 -20 -10 -12 -10 -15 -6 -15 22
0 21 4 31 11 27 5 -4 15 -7 20 -7z m0 -80 c6 0 10 -8 10 -17 0 -10 -3 -17 -6
-15 -3 1 -12 -3 -20 -10 -12 -10 -15 -6 -15 22 0 21 4 31 11 27 5 -4 15 -7 20
-7z m0 -80 c6 0 10 -8 10 -17 0 -10 -3 -17 -6 -15 -3 1 -12 -3 -20 -10 -12
-10 -15 -6 -15 22 0 21 4 31 11 27 5 -4 15 -7 20 -7z m0 -80 c6 0 10 -8 10
-17 0 -10 -3 -17 -6 -15 -3 1 -12 -3 -20 -10 -12 -10 -15 -6 -15 22 0 21 4 31
11 27 5 -4 15 -7 20 -7z m0 -80 c6 0 10 -8 10 -17 0 -10 -3 -17 -6 -15 -3 1
-12 -3 -20 -10 -12 -10 -15 -6 -15 22 0 21 4 31 11 27 5 -4 15 -7 20 -7z m0
-80 c6 0 10 -8 10 -17 0 -10 -3 -17 -6 -15 -3 1 -12 -3 -20 -10 -12 -10 -15
-6 -15 22 0 21 4 31 11 27 5 -4 15 -7 20 -7z m0 -80 c6 0 10 -8 10 -17 0 -10
-3 -17 -6 -15 -3 1 -12 -3 -20 -10 -12 -10 -15 -6 -15 22 0 21 4 31 11 27 5
-4 15 -7 20 -7z m0 -80 c6 0 10 -8 10 -17 0 -10 -3 -17 -6 -15 -3 1 -12 -3
-20 -10 -12 -10 -15 -6 -15 22 0 21 4 31 11 27 5 -4 15 -7 20 -7z m0 -80 c6 0
10 -8 10 -17 0 -10 -3 -17 -6 -15 -3 1 -12 -3 -20 -10 -12 -10 -15 -6 -15 22
0 21 4 31 11 27 5 -4 15 -7 20 -7z m0 -80 c6 0 10 -8 10 -17 0 -10 -3 -17 -6
-15 -3 1 -12 -3 -20 -10 -12 -10 -15 -6 -15 22 0 21 4 31 11 27 5 -4 15 -7 20
-7z m0 -80 c6 0 10 -8 10 -17 0 -10 -3 -17 -6 -15 -3 1 -12 -3 -20 -10 -12
-10 -15 -6 -15 22 0 21 4 31 11 27 5 -4 15 -7 20 -7z m0 -80 c6 0 10 -8 10
-17 0 -10 -3 -17 -6 -15 -3 1 -12 -3 -20 -10 -12 -10 -15 -6 -15 22 0 21 4 31
11 27 5 -4 15 -7 20 -7z m0 -80 c6 0 10 -8 10 -17 0 -10 -3 -17 -6 -15 -3 1
-12 -3 -20 -10 -12 -10 -15 -6 -15 22 0 21 4 31 11 27 5 -4 15 -7 20 -7z m0
-80 c6 0 10 -8 10 -17 0 -10 -3 -17 -6 -15 -3 1 -12 -3 -20 -10 -12 -10 -15
-6 -15 22 0 21 4 31 11 27 5 -4 15 -7 20 -7z m0 -80 c6 0 10 -8 10 -17 0 -10
-3 -17 -6 -15 -3 1 -12 -3 -20 -10 -12 -10 -15 -6 -15 22 0 21 4 31 11 27 5
-4 15 -7 20 -7z m0 -80 c6 0 10 -8 10 -17 0 -10 -3 -17 -6 -15 -3 1 -12 -3
-20 -10 -12 -10 -15 -6 -15 22 0 21 4 31 11 27 5 -4 15 -7 20 -7z m0 -80 c6 0
10 -8 10 -17 0 -10 -3 -17 -6 -15 -3 1 -12 -3 -20 -10 -12 -10 -15 -6 -15 22
0 21 4 31 11 27 5 -4 15 -7 20 -7z m0 -80 c6 0 10 -8 10 -17 0 -10 -3 -17 -6
-15 -3 1 -12 -3 -20 -10 -12 -10 -15 -6 -15 22 0 21 4 31 11 27 5 -4 15 -7 20
-7z m0 -80 c6 0 10 -8 10 -17 0 -10 -3 -17 -6 -15 -3 1 -12 -3 -20 -10 -12
-10 -15 -6 -15 22 0 21 4 31 11 27 5 -4 15 -7 20 -7z m0 -80 c6 0 10 -8 10
-17 0 -10 -3 -17 -6 -15 -3 1 -12 -3 -20 -10 -12 -10 -15 -6 -15 22 0 21 4 31
11 27 5 -4 15 -7 20 -7z m0 -80 c6 0 10 -8 10 -17 0 -10 -3 -17 -6 -15 -3 1
-12 -3 -20 -10 -12 -10 -15 -6 -15 22 0 21 4 31 11 27 5 -4 15 -7 20 -7z m0
-80 c6 0 10 -8 10 -17 0 -10 -3 -17 -6 -15 -3 1 -12 -3 -20 -10 -12 -10 -15
-6 -15 22 0 21 4 31 11 27 5 -4 15 -7 20 -7z m0 -80 c6 0 10 -8 10 -17 0 -10
-3 -17 -6 -15 -3 1 -12 -3 -20 -10 -12 -10 -15 -6 -15 22 0 21 4 31 11 27 5
-4 15 -7 20 -7z m0 -80 c6 0 10 -8 10 -17 0 -10 -3 -17 -6 -15 -3 1 -12 -3
-20 -10 -12 -10 -15 -6 -15 22 0 21 4 31 11 27 5 -4 15 -7 20 -7z m0 -80 c6 0
10 -8 10 -17 0 -10 -3 -17 -6 -15 -3 1 -12 -3 -20 -10 -12 -10 -15 -6 -15 22
0 21 4 31 11 27 5 -4 15 -7 20 -7z m0 -80 c6 0 10 -8 10 -17 0 -10 -3 -17 -6
-15 -3 1 -12 -3 -20 -10 -12 -10 -15 -6 -15 22 0 21 4 31 11 27 5 -4 15 -7 20
-7z m0 -80 c6 0 10 -8 10 -17 0 -10 -3 -17 -6 -15 -3 1 -12 -3 -20 -10 -12
-10 -15 -6 -15 22 0 21 4 31 11 27 5 -4 15 -7 20 -7z m0 -140 c6 0 10 -8 10
-17 0 -10 -3 -17 -6 -15 -3 1 -12 -3 -20 -10 -12 -10 -15 -6 -15 22 0 21 4 31
11 27 5 -4 15 -7 20 -7z m0 -80 c6 0 10 -8 10 -17 0 -10 -3 -17 -6 -15 -3 1
-12 -3 -20 -10 -12 -10 -15 -6 -15 22 0 21 4 31 11 27 5 -4 15 -7 20 -7z m0
-80 c6 0 10 -8 10 -17 0 -10 -3 -17 -6 -15 -3 1 -12 -3 -20 -10 -12 -10 -15
-6 -15 22 0 21 4 31 11 27 5 -4 15 -7 20 -7z m0 -80 c6 0 10 -8 10 -17 0 -10
-3 -17 -6 -15 -3 1 -12 -3 -20 -10 -12 -10 -15 -6 -15 22 0 21 4 31 11 27 5
-4 15 -7 20 -7z m0 -80 c6 0 10 -8 10 -17 0 -10 -3 -17 -6 -15 -3 1 -12 -3
-20 -10 -12 -10 -15 -6 -15 22 0 21 4 31 11 27 5 -4 15 -7 20 -7z m0 -80 c6 0
10 -8 10 -17 0 -10 -3 -17 -6 -15 -3 1 -12 -3 -20 -10 -12 -10 -15 -6 -15 22
0 21 4 31 11 27 5 -4 15 -7 20 -7z m0 -80 c6 0 10 -8 10 -17 0 -10 -3 -17 -6
-15 -3 1 -12 -3 -20 -10 -12 -10 -15 -6 -15 22 0 21 4 31 11 27 5 -4 15 -7 20
-7z m0 -80 c6 0 10 -8 10 -17 0 -10 -3 -17 -6 -15 -3 1 -12 -3 -20 -10 -12
-10 -15 -6 -15 22 0 21 4 31 11 27 5 -4 15 -7 20 -7z m0 -80 c6 0 10 -8 10
-17 0 -10 -3 -17 -6 -15 -3 1 -12 -3 -20 -10 -12 -10 -15 -6 -15 22 0 21 4 31
11 27 5 -4 15 -7 20 -7z m0 -80 c6 0 10 -8 10 -17 0 -10 -3 -17 -6 -15 -3 1
-12 -3 -20 -10 -12 -10 -15 -6 -15 22 0 21 4 31 11 27 5 -4 15 -7 20 -7z m0
-80 c6 0 10 -8 10 -17 0 -10 -3 -17 -6 -15 -3 1 -12 -3 -20 -10 -12 -10 -15
-6 -15 22 0 21 4 31 11 27 5 -4 15 -7 20 -7z m0 -80 c6 0 10 -8 10 -17 0 -10
-3 -17 -6 -15 -3 1 -12 -3 -20 -10 -12 -10 -15 -6 -15 22 0 21 4 31 11 27 5
-4 15 -7 20 -7z m0 -80 c6 0 10 -8 10 -17 0 -10 -3 -17 -6 -15 -3 1 -12 -3
-20 -10 -12 -10 -15 -6 -15 22 0 21 4 31 11 27 5 -4 15 -7 20 -7z m0 -80 c6 0
10 -8 10 -17 0 -10 -3 -17 -6 -15 -3 1 -12 -3 -20 -10 -12 -10 -15 -6 -15 22
0 21 4 31 11 27 5 -4 15 -7 20 -7z m0 -80 c6 0 10 -8 10 -17 0 -10 -3 -17 -6
-15 -3 1 -12 -3 -20 -10 -12 -10 -15 -6 -15 22 0 21 4 31 11 27 5 -4 15 -7 20
-7z m0 -80 c6 0 10 -8 10 -17 0 -10 -3 -17 -6 -15 -3 1 -12 -3 -20 -10 -12
-10 -15 -6 -15 22 0 21 4 31 11 27 5 -4 15 -7 20 -7z m0 -80 c6 0 10 -8 10
-17 0 -10 -3 -17 -6 -15 -3 1 -12 -3 -20 -10 -12 -10 -15 -6 -15 22 0 21 4 31
11 27 5 -4 15 -7 20 -7z m0 -80 c6 0 10 -8 10 -17 0 -10 -3 -17 -6 -15 -3 1
-12 -3 -20 -10 -12 -10 -15 -6 -15 22 0 21 4 31 11 27 5 -4 15 -7 20 -7z m0
-80 c6 0 10 -8 10 -17 0 -10 -3 -17 -6 -15 -3 1 -12 -3 -20 -10 -12 -10 -15
-6 -15 22 0 21 4 31 11 27 5 -4 15 -7 20 -7z m0 -80 c6 0 10 -8 10 -17 0 -10
-3 -17 -6 -15 -3 1 -12 -3 -20 -10 -12 -10 -15 -6 -15 22 0 21 4 31 11 27 5
-4 15 -7 20 -7z m0 -80 c6 0 10 -8 10 -17 0 -10 -3 -17 -6 -15 -3 1 -12 -3
-20 -10 -12 -10 -15 -6 -15 22 0 21 4 31 11 27 5 -4 15 -7 20 -7z m0 -80 c6 0
10 -8 10 -17 0 -10 -3 -17 -6 -15 -3 1 -12 -3 -20 -10 -12 -10 -15 -6 -15 22
0 21 4 31 11 27 5 -4 15 -7 20 -7z m0 -80 c6 0 10 -8 10 -17 0 -10 -3 -17 -6
-15 -3 1 -12 -3 -20 -10 -12 -10 -15 -6 -15 22 0 21 4 31 11 27 5 -4 15 -7 20
-7z m0 -80 c6 0 10 -8 10 -17 0 -10 -3 -17 -6 -15 -3 1 -12 -3 -20 -10 -12
-10 -15 -6 -15 22 0 21 4 31 11 27 5 -4 15 -7 20 -7z m0 -80 c6 0 10 -8 10
-17 0 -10 -3 -17 -6 -15 -3 1 -12 -3 -20 -10 -12 -10 -15 -6 -15 22 0 21 4 31
11 27 5 -4 15 -7 20 -7z m0 -80 c6 0 10 -8 10 -17 0 -10 -3 -17 -6 -15 -3 1
-12 -3 -20 -10 -12 -10 -15 -6 -15 22 0 21 4 31 11 27 5 -4 15 -7 20 -7z m0
-80 c6 0 10 -8 10 -17 0 -10 -3 -17 -6 -15 -3 1 -12 -3 -20 -10 -12 -10 -15
-6 -15 22 0 21 4 31 11 27 5 -4 15 -7 20 -7z m0 -80 c6 0 10 -8 10 -17 0 -10
-3 -17 -6 -15 -3 1 -12 -3 -20 -10 -12 -10 -15 -6 -15 22 0 21 4 31 11 27 5
-4 15 -7 20 -7z m0 -80 c6 0 10 -8 10 -17 0 -10 -3 -17 -6 -15 -3 1 -12 -3
-20 -10 -12 -10 -15 -6 -15 22 0 21 4 31 11 27 5 -4 15 -7 20 -7z m0 -80 c6 0
10 -8 10 -17 0 -10 -3 -17 -6 -15 -3 1 -12 -3 -20 -10 -12 -10 -15 -6 -15 22
0 21 4 31 11 27 5 -4 15 -7 20 -7z m0 -80 c6 0 10 -8 10 -17 0 -10 -3 -17 -6
-15 -3 1 -12 -3 -20 -10 -12 -10 -15 -6 -15 22 0 21 4 31 11 27 5 -4 15 -7 20
-7z m0 -140 c6 0 10 -8 10 -17 0 -10 -3 -17 -6 -15 -3 1 -12 -3 -20 -10 -12
-10 -15 -6 -15 22 0 21 4 31 11 27 5 -4 15 -7 20 -7z m0 -80 c6 0 10 -8 10
-17 0 -10 -3 -17 -6 -15 -3 1 -12 -3 -20 -10 -12 -10 -15 -6 -15 22 0 21 4 31
11 27 5 -4 15 -7 20 -7z m0 -80 c6 0 10 -8 10 -17 0 -10 -3 -17 -6 -15 -3 1
-12 -3 -20 -10 -12 -10 -15 -6 -15 22 0 21 4 31 11 27 5 -4 15 -7 20 -7z m0
-80 c6 0 10 -8 10 -17 0 -10 -3 -17 -6 -15 -3 1 -12 -3 -20 -10 -12 -10 -15
-6 -15 22 0 21 4 31 11 27 5 -4 15 -7 20 -7z m0 -80 c6 0 10 -8 10 -17 0 -10
-3 -17 -6 -15 -3 1 -12 -3 -20 -10 -12 -10 -15 -6 -15 22 0 21 4 31 11 27 5
-4 15 -7 20 -7z m0 -80 c6 0 10 -8 10 -17 0 -10 -3 -17 -6 -15 -3 1 -12 -3
-20 -10 -12 -10 -15 -6 -15 22 0 21 4 31 11 27 5 -4 15 -7 20 -7z m0 -80 c6 0
10 -8 10 -17 0 -10 -3 -17 -6 -15 -3 1 -12 -3 -20 -10 -12 -10 -15 -6 -15 22
0 21 4 31 11 27 5 -4 15 -7 20 -7z m0 -80 c6 0 10 -8 10 -17 0 -10 -3 -17 -6
-15 -3 1 -12 -3 -20 -10 -12 -10 -15 -6 -15 22 0 21 4 31 11 27 5 -4 15 -7 20
-7z m0 -80 c6 0 10 -8 10 -17 0 -10 -3 -17 -6 -15 -3 1 -12 -3 -20 -10 -12
-10 -15 -6 -15 22 0 21 4 31 11 27 5 -4 15 -7 20 -7z m0 -80 c6 0 10 -8 10
-17 0 -10 -3 -17 -6 -15 -3 1 -12 -3 -20 -10 -12 -10 -15 -6 -15 22 0 21 4 31
11 27 5 -4 15 -7 20 -7z m0 -80 c6 0 10 -8 10 -17 0 -10 -3 -17 -6 -15 -3 1
-12 -3 -20 -10 -12 -10 -15 -6 -15 22 0 21 4 31 11 27 5 -4 15 -7 20 -7z m0
-80 c6 0 10 -8 10 -17 0 -10 -3 -17 -6 -15 -3 1 -12 -3 -20 -10 -12 -10 -15
-6 -15 22 0 21 4 31 11 27 5 -4 15 -7 20 -7z m0 -80 c6 0 10 -8 10 -17 0 -10
-3 -17 -6 -15 -3 1 -12 -3 -20 -10 -12 -10 -15 -6 -15 22 0 21 4 31 11 27 5
-4 15 -7 20 -7z m0 -80 c6 0 10 -8 10 -17 0 -10 -3 -17 -6 -15 -3 1 -12 -3
-20 -10 -12 -10 -15 -6 -15 22 0 21 4 31 11 27 5 -4 15 -7 20 -7z m0 -80 c6 0
10 -8 10 -17 0 -10 -3 -17 -6 -15 -3 1 -12 -3 -20 -10 -12 -10 -15 -6 -15 22
0 21 4 31 11 27 5 -4 15 -7 20 -7z m0 -80 c6 0 10 -8 10 -17 0 -10 -3 -17 -6
-15 -3 1 -12 -3 -20 -10 -12 -10 -15 -6 -15 22 0 21 4 31 11 27 5 -4 15 -7 20
-7z m0 -80 c6 0 10 -8 10 -17 0 -10 -3 -17 -6 -15 -3 1 -12 -3 -20 -10 -12
-10 -15 -6 -15 22 0 21 4 31 11 27 5 -4 15 -7 20 -7z m0 -80 c6 0 10 -8 10
-17 0 -10 -3 -17 -6 -15 -3 1 -12 -3 -20 -10 -12 -10 -15 -6 -15 22 0 21 4 31
11 27 5 -4 15 -7 20 -7z m0 -80 c6 0 10 -8 10 -17 0 -10 -3 -17 -6 -15 -3 1
-12 -3 -20 -10 -12 -10 -15 -6 -15 22 0 21 4 31 11 27 5 -4 15 -7 20 -7z m0
-80 c6 0 10 -8 10 -17 0 -10 -3 -17 -6 -15 -3 1 -12 -3 -20 -10 -12 -10 -15
-6 -15 22 0 21 4 31 11 27 5 -4 15 -7 20 -7z m0 -80 c6 0 10 -8 10 -17 0 -10
-3 -17 -6 -15 -3 1 -12 -3 -20 -10 -12 -10 -15 -6 -15 22 0 21 4 31 11 27 5
-4 15 -7 20 -7z m0 -80 c6 0 10 -8 10 -17 0 -10 -3 -17 -6 -15 -3 1 -12 -3
-20 -10 -12 -10 -15 -6 -15 22 0 21 4 31 11 27 5 -4 15 -7 20 -7z m0 -80 c6 0
10 -8 10 -17 0 -10 -3 -17 -6 -15 -3 1 -12 -3 -20 -10 -12 -10 -15 -6 -15 22
0 21 4 31 11 27 5 -4 15 -7 20 -7z m0 -80 c6 0 10 -8 10 -17 0 -10 -3 -17 -6
-15 -3 1 -12 -3 -20 -10 -12 -10 -15 -6 -15 22 0 21 4 31 11 27 5 -4 15 -7 20
-7z m0 -80 c6 0 10 -8 10 -17 0 -10 -3 -17 -6 -15 -3 1 -12 -3 -20 -10 -12
-10 -15 -6 -15 22 0 21 4 31 11 27 5 -4 15 -7 20 -7z m0 -80 c6 0 10 -8 10
-17 0 -10 -3 -17 -6 -15 -3 1 -12 -3 -20 -10 -12 -10 -15 -6 -15 22 0 21 4 31
11 27 5 -4 15 -7 20 -7z m0 -80 c6 0 10 -8 10 -17 0 -10 -3 -17 -6 -15 -3 1
-12 -3 -20 -10 -12 -10 -15 -6 -15 22 0 21 4 31 11 27 5 -4 15 -7 20 -7z m0
-80 c6 0 10 -8 10 -17 0 -10 -3 -17 -6 -15 -3 1 -12 -3 -20 -10 -12 -10 -15
-6 -15 22 0 21 4 31 11 27 5 -4 15 -7 20 -7z m0 -80 c6 0 10 -8 10 -17 0 -10
-3 -17 -6 -15 -3 1 -12 -3 -20 -10 -12 -10 -15 -6 -15 22 0 21 4 31 11 27 5
-4 15 -7 20 -7z m0 -80 c6 0 10 -8 10 -17 0 -10 -3 -17 -6 -15 -3 1 -12 -3
-20 -10 -12 -10 -15 -6 -15 22 0 21 4 31 11 27 5 -4 15 -7 20 -7z m0 -80 c6 0
10 -8 10 -17 0 -10 -3 -17 -6 -15 -3 1 -12 -3 -20 -10 -12 -10 -15 -6 -15 22
0 21 4 31 11 27 5 -4 15 -7 20 -7z m0 -140 c6 0 10 -8 10 -17 0 -10 -3 -17 -6
-15 -3 1 -12 -3 -20 -10 -12 -10 -15 -6 -15 22 0 21 4 31 11 27 5 -4 15 -7 20
-7z m0 -80 c6 0 10 -8 10 -17 0 -10 -3 -17 -6 -15 -3 1 -12 -3 -20 -10 -12
-10 -15 -6 -15 22 0 21 4 31 11 27 5 -4 15 -7 20 -7z m0 -80 c6 0 10 -8 10
-17 0 -10 -3 -17 -6 -15 -3 1 -12 -3 -20 -10 -12 -10 -15 -6 -15 22 0 21 4 31
11 27 5 -4 15 -7 20 -7z m0 -80 c6 0 10 -8 10 -17 0 -10 -3 -17 -6 -15 -3 1
-12 -3 -20 -10 -12 -10 -15 -6 -15 22 0 21 4 31 11 27 5 -4 15 -7 20 -7z m0
-80 c6 0 10 -8 10 -17 0 -10 -3 -17 -6 -15 -3 1 -12 -3 -20 -10 -12 -10 -15
-6 -15 22 0 21 4 31 11 27 5 -4 15 -7 20 -7z m0 -80 c6 0 10 -8 10 -17 0 -10
-3 -17 -6 -15 -3 1 -12 -3 -20 -10 -12 -10 -15 -6 -15 22 0 21 4 31 11 27 5
-4 15 -7 20 -7z m0 -80 c6 0 10 -8 10 -17 0 -10 -3 -17 -6 -15 -3 1 -12 -3
-20 -10 -12 -10 -15 -6 -15 22 0 21 4 31 11 27 5 -4 15 -7 20 -7z m-3 -80 c3
0 9 -3 13 -7 4 -3 0 -5 -9 -4 -9 1 -22 8 -29 16 -10 10 -9 11 3 4 8 -5 18 -9
22 -9z"/>
<path d="M9363 10665 c0 -6 6 -12 12 -12 6 0 12 6 12 12 0 6 -6 12 -12 12 -6
0 -12 -6 -12 -12z"/>
<path d="M9363 10585 c0 -6 6 -12 12 -12 6 0 12 6 12 12 0 6 -6 12 -12 12 -6
0 -12 -6 -12 -12z"/>
<path d="M9363 10505 c0 -6 6 -12 12 -12 6 0 12 6 12 12 0 6 -6 12 -12 12 -6
0 -12 -6 -12 -12z"/>
<path d="M9363 10425 c0 -6 6 -12 12 -12 6 0 12 6 12 12 0 6 -6 12 -12 12 -6
0 -12 -6 -12 -12z"/>
<path d="M9363 10345 c0 -6 6 -12 12 -12 6 0 12 6 12 12 0 6 -6 12 -12 12 -6
0 -12 -6 -12 -12z"/>
<path d="M9363 10265 c0 -6 6 -12 12 -12 6 0 12 6 12 12 0 6 -6 12 -12 12 -6
0 -12 -6 -12 -12z"/>
<path d="M9363 10185 c0 -6 6 -12 12 -12 6 0 12 6 12 12 0 6 -6 12 -12 12 -6
0 -12 -6 -12 -12z"/>
<path d="M9363 10105 c0 -6 6 -12 12 -12 6 0 12 6 12 12 0 6 -6 12 -12 12 -6
0 -12 -6 -12 -12z"/>
<path d="M9363 10025 c0 -6 6 -12 12 -12 6 0 12 6 12 12 0 6 -6 12 -12 12 -6
0 -12 -6 -12 -12z"/>
<path d="M9363 9945 c0 -6 6 -12 12 -12 6 0 12 6 12 12 0 6 -6 12 -12 12 -6 0
-12 -6 -12 -12z"/>
<path d="M9363 9865 c0 -6 6 -12 12 -12 6 0 12 6 12 12 0 6 -6 12 -12 12 -6 0
-12 -6 -12 -12z"/>
<path d="M9363 9785 c0 -6 6 -12 12 -12 6 0 12 6 12 12 0 6 -6 12 -12 12 -6 0
-12 -6 -12 -12z"/>
<path d="M9363 9705 c0 -6 6 -12 12 -12 6 0 12 6 12 12 0 6 -6 12 -12 12 -6 0
-12 -6 -12 -12z"/>
<path d="M9363 9625 c0 -6 6 -12 12 -12 6 0 12 6 12 12 0 6 -6 12 -12 12 -6 0
-12 -6 -12 -12z"/>
<path d="M9363 9545 c0 -6 6 -12 12 -12 6 0 12 6 12 12 0 6 -6 12 -12 12 -6 0
-12 -6 -12 -12z"/>
<path d="M9363 9465 c0 -6 6 -12 12 -12 6 0 12 6 12 12 0 6 -6 12 -12 12 -6 0
-12 -6 -12 -12z"/>
<path d="M9363 9385 c0 -6 6 -12 12 -12 6 0 12 6 12 12 0 6 -6 12 -12 12 -6 0
-12 -6 -12 -12z"/>
<path d="M9363 9305 c0 -6 6 -12 12 -12 6 0 12 6 12 12 0 6 -6 12 -12 12 -6 0
-12 -6 -12 -12z"/>
<path d="M9363 9225 c0 -6 6 -12 12 -12 6 0 12 6 12 12 0 6 -6 12 -12 12 -6 0
-12 -6 -12 -12z"/>
<path d="M9363 9145 c0 -6 6 -12 12 -12 6 0 12 6 12 12 0 6 -6 12 -12 12 -6 0
-12 -6 -12 -12z"/>
<path d="M9363 9065 c0 -6 6 -12 12 -12 6 0 12 6 12 12 0 6 -6 12 -12 12 -6 0
-12 -6 -12 -12z"/>
<path d="M9363 8985 c0 -6 6 -12 12 -12 6 0 12 6 12 12 0 6 -6 12 -12 12 -6 0
-12 -6 -12 -12z"/>
<path d="M9363 8905 c0 -6 6 -12 12 -12 6 0 12 6 12 12 0 6 -6 12 -12 12 -6 0
-12 -6 -12 -12z"/>
<path d="M9363 8825 c0 -6 6 -12 12 -12 6 0 12 6 12 12 0 6 -6 12 -12 12 -6 0
-12 -6 -12 -12z"/>
<path d="M9363 8745 c0 -6 6 -12 12 -12 6 0 12 6 12 12 0 6 -6 12 -12 12 -6 0
-12 -6 -12 -12z"/>
<path d="M9363 8665 c0 -6 6 -12 12 -12 6 0 12 6 12 12 0 6 -6 12 -12 12 -6 0
-12 -6 -12 -12z"/>
<path d="M9363 8585 c0 -6 6 -12 12 -12 6 0 12 6 12 12 0 6 -6 12 -12 12 -6 0
-12 -6 -12 -12z"/>
<path d="M9363 8505 c0 -6 6 -12 12 -12 6 0 12 6 12 12 0 6 -6 12 -12 12 -6 0
-12 -6 -12 -12z"/>
<path d="M9363 8425 c0 -6 6 -12 12 -12 6 0 12 6 12 12 0 6 -6 12 -12 12 -6 0
-12 -6 -12 -12z"/>
<path d="M9363 8345 c0 -6 6 -12 12 -12 6 0 12 6 12 12 0 6 -6 12 -12 12 -6 0
-12 -6 -12 -12z"/>
<path d="M9363 8205 c0 -6 6 -12 12 -12 6 0 12 6 12 12 0 6 -6 12 -12 12 -6 0
-12 -6 -12 -12z"/>
<path d="M9363 8125 c0 -6 6 -12 12 -12 6 0 12 6 12 12 0 6 -6 12 -12 12 -6 0
-12 -6 -12 -12z"/>
<path d="M9363 8045 c0 -6 6 -12 12 -12 6 0 12 6 12 12 0 6 -6 12 -12 12 -6 0
-12 -6 -12 -12z"/>
<path d="M9363 7965 c0 -6 6 -12 12 -12 6 0 12 6 12 12 0 6 -6 12 -12 12 -6 0
-12 -6 -12 -12z"/>
<path d="M9363 7885 c0 -6 6 -12 12 -12 6 0 12 6 12 12 0 6 -6 12 -12 12 -6 0
-12 -6 -12 -12z"/>
<path d="M9363 7805 c0 -6 6 -12 12 -12 6 0 12 6 12 12 0 6 -6 12 -12 12 -6 0
-12 -6 -12 -12z"/>
<path d="M9363 7725 c0 -6 6 -12 12 -12 6 0 12 6 12 12 0 6 -6 12 -12 12 -6 0
-12 -6 -12 -12z"/>
<path d="M9363 7645 c0 -6 6 -12 12 -12 6 0 12 6 12 12 0 6 -6 12 -12 12 -6 0
-12 -6 -12 -12z"/>
<path d="M9363 7565 c0 -6 6 -12 12 -12 6 0 12 6 12 12 0 6 -6 12 -12 12 -6 0
-12 -6 -12 -12z"/>
<path d="M9363 7485 c0 -6 6 -12 12 -12 6 0 12 6 12 12 0 6 -6 12 -12 12 -6 0
-12 -6 -12 -12z"/>
<path d="M9363 7405 c0 -6 6 -12 12 -12 6 0 12 6 12 12 0 6 -6 12 -12 12 -6 0
-12 -6 -12 -12z"/>
<path d="M9363 7325 c0 -6 6 -12 12 -12 6 0 12 6 12 12 0 6 -6 12 -12 12 -6 0
-12 -6 -12 -12z"/>
<path d="M9363 7245 c0 -6 6 -12 12 -12 6 0 12 6 12 12 0 6 -6 12 -12 12 -6 0
-12 -6 -12 -12z"/>
<path d="M9363 7165 c0 -6 6 -12 12 -12 6 0 12 6 12 12 0 6 -6 12 -12 12 -6 0
-12 -6 -12 -12z"/>
<path d="M9363 7085 c0 -6 6 -12 12 -12 6 0 12 6 12 12 0 6 -6 12 -12 12 -6 0
-12 -6 -12 -12z"/>
<path d="M9363 7005 c0 -6 6 -12 12 -12 6 0 12 6 12 12 0 6 -6 12 -12 12 -6 0
-12 -6 -12 -12z"/>
<path d="M9363 6925 c0 -6 6 -12 12 -12 6 0 12 6 12 12 0 6 -6 12 -12 12 -6 0
-12 -6 -12 -12z"/>
<path d="M9363 6845 c0 -6 6 -12 12 -12 6 0 12 6 12 12 0 6 -6 12 -12 12 -6 0
-12 -6 -12 -12z"/>
<path d="M9363 6765 c0 -6 6 -12 12 -12 6 0 12 6 12 12 0 6 -6 12 -12 12 -6 0
-12 -6 -12 -12z"/>
<path d="M9363 6685 c0 -6 6 -12 12 -12 6 0 12 6 12 12 0 6 -6 12 -12 12 -6 0
-12 -6 -12 -12z"/>
<path d="M9363 6605 c0 -6 6 -12 12 -12 6 0 12 6 12 12 0 6 -6 12 -12 12 -6 0
-12 -6 -12 -12z"/>
<path d="M9363 6525 c0 -6 6 -12 12 -12 6 0 12 6 12 12 0 6 -6 12 -12 12 -6 0
-12 -6 -12 -12z"/>
<path d="M9363 6445 c0 -6 6 -12 12 -12 6 0 12 6 12 12 0 6 -6 12 -12 12 -6 0
-12 -6 -12 -12z"/>
<path d="M9363 6365 c0 -6 6 -12 12 -12 6 0 12 6 12 12 0 6 -6 12 -12 12 -6 0
-12 -6 -12 -12z"/>
<path d="M9363 6285 c0 -6 6 -12 12 -12 6 0 12 6 12 12 0 6 -6 12 -12 12 -6 0
-12 -6 -12 -12z"/>
<path d="M9363 6205 c0 -6 6 -12 12 -12 6 0 12 6 12 12 0 6 -6 12 -12 12 -6 0
-12 -6 -12 -12z"/>
<path d="M9363 6125 c0 -6 6 -12 12 -12 6 0 12 6 12 12 0 6 -6 12 -12 12 -6 0
-12 -6 -12 -12z"/>
<path d="M9363 6045 c0 -6 6 -12 12 -12 6 0 12 6 12 12 0 6 -6 12 -12 12 -6 0
-12 -6 -12 -12z"/>
<path d="M9363 5965 c0 -6 6 -12 12 -12 6 0 12 6 12 12 0 6 -6 12 -12 12 -6 0
-12 -6 -12 -12z"/>
<path d="M9363 5885 c0 -6 6 -12 12 -12 6 0 12 6 12 12 0 6 -6 12 -12 12 -6 0
-12 -6 -12 -12z"/>
<path d="M9363 5805 c0 -6 6 -12 12 -12 6 0 12 6 12 12 0 6 -6 12 -12 12 -6 0
-12 -6 -12 -12z"/>
<path d="M9363 5665 c0 -6 6 -12 12 -12 6 0 12 6 12 12 0 6 -6 12 -12 12 -6 0
-12 -6 -12 -12z"/>
<path d="M9363 5585 c0 -6 6 -12 12 -12 6 0 12 6 12 12 0 6 -6 12 -12 12 -6 0
-12 -6 -12 -12z"/>
<path d="M9363 5505 c0 -6 6 -12 12 -12 6 0 12 6 12 12 0 6 -6 12 -12 12 -6 0
-12 -6 -12 -12z"/>
<path d="M9363 5425 c0 -6 6 -12 12 -12 6 0 12 6 12 12 0 6 -6 12 -12 12 -6 0
-12 -6 -12 -12z"/>
<path d="M9363 5345 c0 -6 6 -12 12 -12 6 0 12 6 12 12 0 6 -6 12 -12 12 -6 0
-12 -6 -12 -12z"/>
<path d="M9363 5265 c0 -6 6 -12 12 -12 6 0 12 6 12 12 0 6 -6 12 -12 12 -6 0
-12 -6 -12 -12z"/>
<path d="M9363 5185 c0 -6 6 -12 12 -12 6 0 12 6 12 12 0 6 -6 12 -12 12 -6 0
-12 -6 -12 -12z"/>
<path d="M9363 5105 c0 -6 6 -12 12 -12 6 0 12 6 12 12 0 6 -6 12 -12 12 -6 0
-12 -6 -12 -12z"/>
<path d="M9363 5025 c0 -6 6 -12 12 -12 6 0 12 6 12 12 0 6 -6 12 -12 12 -6 0
-12 -6 -12 -12z"/>
<path d="M9363 4945 c0 -6 6 -12 12 -12 6 0 12 6 12 12 0 6 -6 12 -12 12 -6 0
-12 -6 -12 -12z"/>
<path d="M9363 4865 c0 -6 6 -12 12 -12 6 0 12 6 12 12 0 6 -6 12 -12 12 -6 0
-12 -6 -12 -12z"/>
<path d="M9363 4785 c0 -6 6 -12 12 -12 6 0 12 6 12 12 0 6 -6 12 -12 12 -6 0
-12 -6 -12 -12z"/>
<path d="M9363 4705 c0 -6 6 -12 12 -12 6 0 12 6 12 12 0 6 -6 12 -12 12 -6 0
-12 -6 -12 -12z"/>
<path d="M9363 4625 c0 -6 6 -12 12 -12 6 0 12 6 12 12 0 6 -6 12 -12 12 -6 0
-12 -6 -12 -12z"/>
<path d="M9363 4545 c0 -6 6 -12 12 -12 6 0 12 6 12 12 0 6 -6 12 -12 12 -6 0
-12 -6 -12 -12z"/>
<path d="M9363 4465 c0 -6 6 -12 12 -12 6 0 12 6 12 12 0 6 -6 12 -12 12 -6 0
-12 -6 -12 -12z"/>
<path d="M9363 4385 c0 -6 6 -12 12 -12 6 0 12 6 12 12 0 6 -6 12 -12 12 -6 0
-12 -6 -12 -12z"/>
<path d="M9363 4305 c0 -6 6 -12 12 -12 6 0 12 6 12 12 0 6 -6 12 -12 12 -6 0
-12 -6 -12 -12z"/>
<path d="M9363 4225 c0 -6 6 -12 12 -12 6 0 12 6 12 12 0 6 -6 12 -12 12 -6 0
-12 -6 -12 -12z"/>
<path d="M9363 4145 c0 -6 6 -12 12 -12 6 0 12 6 12 12 0 6 -6 12 -12 12 -6 0
-12 -6 -12 -12z"/>
<path d="M9363 4065 c0 -6 6 -12 12 -12 6 0 12 6 12 12 0 6 -6 12 -12 12 -6 0
-12 -6 -12 -12z"/>
<path d="M9363 3985 c0 -6 6 -12 12 -12 6 0 12 6 12 12 0 6 -6 12 -12 12 -6 0
-12 -6 -12 -12z"/>
<path d="M9363 3905 c0 -6 6 -12 12 -12 6 0 12 6 12 12 0 6 -6 12 -12 12 -6 0
-12 -6 -12 -12z"/>
<path d="M9363 3825 c0 -6 6 -12 12 -12 6 0 12 6 12 12 0 6 -6 12 -12 12 -6 0
-12 -6 -12 -12z"/>
<path d="M9363 3745 c0 -6 6 -12 12 -12 6 0 12 6 12 12 0 6 -6 12 -12 12 -6 0
-12 -6 -12 -12z"/>
<path d="M9363 3665 c0 -6 6 -12 12 -12 6 0 12 6 12 12 0 6 -6 12 -12 12 -6 0
-12 -6 -12 -12z"/>
<path d="M9363 3585 c0 -6 6 -12 12 -12 6 0 12 6 12 12 0 6 -6 12 -12 12 -6 0
-12 -6 -12 -12z"/>
<path d="M9363 3505 c0 -6 6 -12 12 -12 6 0 12 6 12 12 0 6 -6 12 -12 12 -6 0
-12 -6 -12 -12z"/>
<path d="M9363 3425 c0 -6 6 -12 12 -12 6 0 12 6 12 12 0 6 -6 12 -12 12 -6 0
-12 -6 -12 -12z"/>
<path d="M9363 3345 c0 -6 6 -12 12 -12 6 0 12 6 12 12 0 6 -6 12 -12 12 -6 0
-12 -6 -12 -12z"/>
<path d="M9363 3265 c0 -6 6 -12 12 -12 6 0 12 6 12 12 0 6 -6 12 -12 12 -6 0
-12 -6 -12 -12z"/>
<path d="M9363 3125 c0 -6 6 -12 12 -12 6 0 12 6 12 12 0 6 -6 12 -12 12 -6 0
-12 -6 -12 -12z"/>
<path d="M9363 3045 c0 -6 6 -12 12 -12 6 0 12 6 12 12 0 6 -6 12 -12 12 -6 0
-12 -6 -12 -12z"/>
<path d="M9363 2965 c0 -6 6 -12 12 -12 6 0 12 6 12 12 0 6 -6 12 -12 12 -6 0
-12 -6 -12 -12z"/>
<path d="M9363 2885 c0 -6 6 -12 12 -12 6 0 12 6 12 12 0 6 -6 12 -12 12 -6 0
-12 -6 -12 -12z"/>
<path d="M9363 2805 c0 -6 6 -12 12 -12 6 0 12 6 12 12 0 6 -6 12 -12 12 -6 0
-12 -6 -12 -12z"/>
<path d="M9363 2725 c0 -6 6 -12 12 -12 6 0 12 6 12 12 0 6 -6 12 -12 12 -6 0
-12 -6 -12 -12z"/>
<path d="M9363 2645 c0 -6 6 -12 12 -12 6 0 12 6 12 12 0 6 -6 12 -12 12 -6 0
-12 -6 -12 -12z"/>
<path d="M9363 2565 c0 -6 6 -12 12 -12 6 0 12 6 12 12 0 6 -6 12 -12 12 -6 0
-12 -6 -12 -12z"/>
<path d="M9363 2485 c0 -6 6 -12 12 -12 6 0 12 6 12 12 0 6 -6 12 -12 12 -6 0
-12 -6 -12 -12z"/>
<path d="M9363 2405 c0 -6 6 -12 12 -12 6 0 12 6 12 12 0 6 -6 12 -12 12 -6 0
-12 -6 -12 -12z"/>
<path d="M9363 2325 c0 -6 6 -12 12 -12 6 0 12 6 12 12 0 6 -6 12 -12 12 -6 0
-12 -6 -12 -12z"/>
<path d="M9363 2245 c0 -6 6 -12 12 -12 6 0 12 6 12 12 0 6 -6 12 -12 12 -6 0
-12 -6 -12 -12z"/>
<path d="M9363 2165 c0 -6 6 -12 12 -12 6 0 12 6 12 12 0 6 -6 12 -12 12 -6 0
-12 -6 -12 -12z"/>
<path d="M9363 2085 c0 -6 6 -12 12 -12 6 0 12 6 12 12 0 6 -6 12 -12 12 -6 0
-12 -6 -12 -12z"/>
<path d="M9363 2005 c0 -6 6 -12 12 -12 6 0 12 6 12 12 0 6 -6 12 -12 12 -6 0
-12 -6 -12 -12z"/>
<path d="M9363 1925 c0 -6 6 -12 12 -12 6 0 12 6 12 12 0 6 -6 12 -12 12 -6 0
-12 -6 -12 -12z"/>
<path d="M9363 1845 c0 -6 6 -12 12 -12 6 0 12 6 12 12 0 6 -6 12 -12 12 -6 0
-12 -6 -12 -12z"/>
<path d="M9363 1765 c0 -6 6 -12 12 -12 6 0 12 6 12 12 0 6 -6 12 -12 12 -6 0
-12 -6 -12 -12z"/>
<path d="M9363 1685 c0 -6 6 -12 12 -12 6 0 12 6 12 12 0 6 -6 12 -12 12 -6 0
-12 -6 -12 -12z"/>
<path d="M9363 1605 c0 -6 6 -12 12 -12 6 0 12 6 12 12 0 6 -6 12 -12 12 -6 0
-12 -6 -12 -12z"/>
<path d="M9363 1525 c0 -6 6 -12 12 -12 6 0 12 6 12 12 0 6 -6 12 -12 12 -6 0
-12 -6 -12 -12z"/>
<path d="M9363 1445 c0 -6 6 -12 12 -12 6 0 12 6 12 12 0 6 -6 12 -12 12 -6 0
-12 -6 -12 -12z"/>
<path d="M9363 1365 c0 -6 6 -12 12 -12 6 0 12 6 12 12 0 6 -6 12 -12 12 -6 0
-12 -6 -12 -12z"/>
<path d="M9363 1285 c0 -6 6 -12 12 -12 6 0 12 6 12 12 0 6 -6 12 -12 12 -6 0
-12 -6 -12 -12z"/>
<path d="M9363 1205 c0 -6 6 -12 12 -12 6 0 12 6 12 12 0 6 -6 12 -12 12 -6 0
-12 -6 -12 -12z"/>
<path d="M9363 1125 c0 -6 6 -12 12 -12 6 0 12 6 12 12 0 6 -6 12 -12 12 -6 0
-12 -6 -12 -12z"/>
<path d="M9363 1045 c0 -6 6 -12 12 -12 6 0 12 6 12 12 0 6 -6 12 -12 12 -6 0
-12 -6 -12 -12z"/>
<path d="M9363 965 c0 -6 6 -12 12 -12 6 0 12 6 12 12 0 6 -6 12 -12 12 -6 0
-12 -6 -12 -12z"/>
<path d="M9363 885 c0 -6 6 -12 12 -12 6 0 12 6 12 12 0 6 -6 12 -12 12 -6 0
-12 -6 -12 -12z"/>
<path d="M9363 805 c0 -6 6 -12 12 -12 6 0 12 6 12 12 0 6 -6 12 -12 12 -6 0
-12 -6 -12 -12z"/>
<path d="M9363 725 c0 -6 6 -12 12 -12 6 0 12 6 12 12 0 6 -6 12 -12 12 -6 0
-12 -6 -12 -12z"/>
<path d="M9363 585 c0 -6 6 -12 12 -12 6 0 12 6 12 12 0 6 -6 12 -12 12 -6 0
-12 -6 -12 -12z"/>
<path d="M9363 505 c0 -6 6 -12 12 -12 6 0 12 6 12 12 0 6 -6 12 -12 12 -6 0
-12 -6 -12 -12z"/>
<path d="M9363 425 c0 -6 6 -12 12 -12 6 0 12 6 12 12 0 6 -6 12 -12 12 -6 0
-12 -6 -12 -12z"/>
<path d="M9363 345 c0 -6 6 -12 12 -12 6 0 12 6 12 12 0 6 -6 12 -12 12 -6 0
-12 -6 -12 -12z"/>
<path d="M9363 265 c0 -6 6 -12 12 -12 6 0 12 6 12 12 0 6 -6 12 -12 12 -6 0
-12 -6 -12 -12z"/>
<path d="M9363 185 c0 -6 6 -12 12 -12 6 0 12 6 12 12 0 6 -6 12 -12 12 -6 0
-12 -6 -12 -12z"/>
<path d="M9363 105 c0 -6 6 -12 12 -12 6 0 12 6 12 12 0 6 -6 12 -12 12 -6 0
-12 -6 -12 -12z"/>
<path d="M6085 9548 c-6 -28 -385 -2176 -385 -2184 0 -3 323 -4 718 -1 606 3
735 6 832 21 777 114 1178 450 1271 1061 7 44 12 143 12 220 0 208 -37 341
-133 470 -161 217 -456 345 -920 399 -235 28 -444 36 -916 36 l-474 0 -5 -22z"/>
<path d="M4207 9063 c-8 -12 -1019 -2506 -1025 -2525 -4 -17 49 -18 1007 -18
556 0 1011 4 1011 8 0 9 -979 2534 -985 2540 -2 2 -5 0 -8 -5z"/>
<path d="M5660 7148 c0 -2 -11 -65 -25 -140 l-24 -137 395 -991 396 -990 86 0
c135 0 416 19 527 36 333 49 602 173 793 366 169 171 270 372 318 635 26 142
26 449 0 553 -91 365 -366 568 -871 646 -94 14 -221 18 -852 21 -409 3 -743 3
-743 1z"/>
<path d="M5441 5900 c-13 -61 -178 -1006 -176 -1008 1 -1 130 -1 287 0 l286 3
-194 495 c-213 544 -202 517 -203 510z"/>
<path d="M4057 3110 c-3 -30 -8 -83 -11 -117 -4 -57 -2 -63 15 -63 21 0 23 28
10 165 l-7 70 -7 -55z"/>
<path d="M3067 2664 c-22 -53 -37 -98 -34 -100 2 -3 38 -4 79 -2 l75 3 -34 90
c-19 50 -38 93 -41 97 -4 4 -24 -36 -45 -88z"/>
<path d="M3721 2613 c-14 -32 -38 -87 -55 -123 l-31 -66 11 -204 c16 -282 25
-402 32 -395 6 6 73 824 69 838 -1 5 -13 -18 -26 -50z"/>
<path d="M4040 2595 c0 -50 16 -89 49 -119 l21 -19 -1 44 c-2 68 -12 96 -41
119 l-28 21 0 -46z"/>
<path d="M4448 2565 c-54 -49 -58 -55 -58 -97 0 -25 3 -60 6 -77 6 -29 9 -31
48 -31 l42 0 11 127 c7 70 11 128 10 129 -1 1 -28 -22 -59 -51z"/>
<path d="M4410 2213 c-1 -73 25 -393 32 -393 4 0 8 24 8 53 0 48 12 204 25
315 l5 42 -35 0 c-27 0 -35 -4 -35 -17z"/>
<path d="M5563 2779 c4 -13 7 -113 7 -223 l0 -198 48 7 c114 16 218 91 243
174 15 51 6 75 -24 67 -12 -3 -32 -6 -44 -6 -22 0 -23 -4 -23 -85 0 -49 -4
-85 -10 -85 -6 0 -11 65 -12 163 l-3 162 -50 16 c-27 9 -70 20 -94 24 -43 7
-44 7 -38 -16z"/>
<path d="M5770 2680 l0 -50 45 0 c44 0 45 1 34 23 -14 27 -60 77 -71 77 -4 0
-8 -22 -8 -50z"/>
<path d="M6706 2653 c-16 -38 -30 -74 -33 -80 -4 -9 6 -13 31 -13 l36 0 0 80
c0 44 -1 80 -3 80 -2 0 -16 -30 -31 -67z"/>
<path d="M5115 2606 c-4 -25 -2 -57 3 -73 9 -24 11 -17 11 45 1 39 -1 72 -3
72 -3 0 -8 -20 -11 -44z"/>
<path d="M2280 2616 l0 -166 66 0 c110 0 163 40 178 131 7 46 -8 116 -32 143
-29 31 -71 47 -143 53 l-69 6 0 -167z"/>
</g>
</svg>
